<mxfile host="app.diagrams.net" modified="2021-10-14T09:55:32.211Z" agent="5.0 (Windows NT 10.0; Win64; x64) AppleWebKit/537.36 (KHTML, like Gecko) Chrome/94.0.4606.71 Safari/537.36" etag="A9UA-q42nd8rZAnGH26g" version="15.5.0" type="github">
  <diagram id="C5RBs43oDa-KdzZeNtuy" name="Page-1">
    <mxGraphModel dx="2249" dy="1875" grid="1" gridSize="10" guides="1" tooltips="1" connect="1" arrows="1" fold="1" page="1" pageScale="1" pageWidth="827" pageHeight="1169" math="0" shadow="0">
      <root>
        <mxCell id="WIyWlLk6GJQsqaUBKTNV-0" />
        <mxCell id="WIyWlLk6GJQsqaUBKTNV-1" parent="WIyWlLk6GJQsqaUBKTNV-0" />
        <mxCell id="zkfFHV4jXpPFQw0GAbJ--0" value="Person" style="swimlane;fontStyle=2;align=center;verticalAlign=top;childLayout=stackLayout;horizontal=1;startSize=26;horizontalStack=0;resizeParent=1;resizeLast=0;collapsible=1;marginBottom=0;rounded=0;shadow=0;strokeWidth=1;" parent="WIyWlLk6GJQsqaUBKTNV-1" vertex="1">
          <mxGeometry x="220" y="120" width="160" height="138" as="geometry">
            <mxRectangle x="230" y="140" width="160" height="26" as="alternateBounds" />
          </mxGeometry>
        </mxCell>
        <mxCell id="zkfFHV4jXpPFQw0GAbJ--1" value="Name" style="text;align=left;verticalAlign=top;spacingLeft=4;spacingRight=4;overflow=hidden;rotatable=0;points=[[0,0.5],[1,0.5]];portConstraint=eastwest;" parent="zkfFHV4jXpPFQw0GAbJ--0" vertex="1">
          <mxGeometry y="26" width="160" height="26" as="geometry" />
        </mxCell>
        <mxCell id="zkfFHV4jXpPFQw0GAbJ--2" value="Phone Number" style="text;align=left;verticalAlign=top;spacingLeft=4;spacingRight=4;overflow=hidden;rotatable=0;points=[[0,0.5],[1,0.5]];portConstraint=eastwest;rounded=0;shadow=0;html=0;" parent="zkfFHV4jXpPFQw0GAbJ--0" vertex="1">
          <mxGeometry y="52" width="160" height="26" as="geometry" />
        </mxCell>
        <mxCell id="zkfFHV4jXpPFQw0GAbJ--3" value="Email Address" style="text;align=left;verticalAlign=top;spacingLeft=4;spacingRight=4;overflow=hidden;rotatable=0;points=[[0,0.5],[1,0.5]];portConstraint=eastwest;rounded=0;shadow=0;html=0;" parent="zkfFHV4jXpPFQw0GAbJ--0" vertex="1">
          <mxGeometry y="78" width="160" height="26" as="geometry" />
        </mxCell>
        <mxCell id="zkfFHV4jXpPFQw0GAbJ--4" value="" style="line;html=1;strokeWidth=1;align=left;verticalAlign=middle;spacingTop=-1;spacingLeft=3;spacingRight=3;rotatable=0;labelPosition=right;points=[];portConstraint=eastwest;" parent="zkfFHV4jXpPFQw0GAbJ--0" vertex="1">
          <mxGeometry y="104" width="160" height="8" as="geometry" />
        </mxCell>
        <mxCell id="zkfFHV4jXpPFQw0GAbJ--5" value="Purchase Parking Pass" style="text;align=left;verticalAlign=top;spacingLeft=4;spacingRight=4;overflow=hidden;rotatable=0;points=[[0,0.5],[1,0.5]];portConstraint=eastwest;" parent="zkfFHV4jXpPFQw0GAbJ--0" vertex="1">
          <mxGeometry y="112" width="160" height="26" as="geometry" />
        </mxCell>
        <mxCell id="zkfFHV4jXpPFQw0GAbJ--6" value="Student" style="swimlane;fontStyle=0;align=center;verticalAlign=top;childLayout=stackLayout;horizontal=1;startSize=26;horizontalStack=0;resizeParent=1;resizeLast=0;collapsible=1;marginBottom=0;rounded=0;shadow=0;strokeWidth=1;" parent="WIyWlLk6GJQsqaUBKTNV-1" vertex="1">
          <mxGeometry x="120" y="360" width="160" height="138" as="geometry">
            <mxRectangle x="130" y="380" width="160" height="26" as="alternateBounds" />
          </mxGeometry>
        </mxCell>
        <mxCell id="zkfFHV4jXpPFQw0GAbJ--7" value="Student Number" style="text;align=left;verticalAlign=top;spacingLeft=4;spacingRight=4;overflow=hidden;rotatable=0;points=[[0,0.5],[1,0.5]];portConstraint=eastwest;" parent="zkfFHV4jXpPFQw0GAbJ--6" vertex="1">
          <mxGeometry y="26" width="160" height="26" as="geometry" />
        </mxCell>
        <mxCell id="zkfFHV4jXpPFQw0GAbJ--8" value="Average Mark" style="text;align=left;verticalAlign=top;spacingLeft=4;spacingRight=4;overflow=hidden;rotatable=0;points=[[0,0.5],[1,0.5]];portConstraint=eastwest;rounded=0;shadow=0;html=0;" parent="zkfFHV4jXpPFQw0GAbJ--6" vertex="1">
          <mxGeometry y="52" width="160" height="26" as="geometry" />
        </mxCell>
        <mxCell id="zkfFHV4jXpPFQw0GAbJ--9" value="" style="line;html=1;strokeWidth=1;align=left;verticalAlign=middle;spacingTop=-1;spacingLeft=3;spacingRight=3;rotatable=0;labelPosition=right;points=[];portConstraint=eastwest;" parent="zkfFHV4jXpPFQw0GAbJ--6" vertex="1">
          <mxGeometry y="78" width="160" height="8" as="geometry" />
        </mxCell>
        <mxCell id="zkfFHV4jXpPFQw0GAbJ--10" value="Is Eligible To Enroll" style="text;align=left;verticalAlign=top;spacingLeft=4;spacingRight=4;overflow=hidden;rotatable=0;points=[[0,0.5],[1,0.5]];portConstraint=eastwest;fontStyle=4" parent="zkfFHV4jXpPFQw0GAbJ--6" vertex="1">
          <mxGeometry y="86" width="160" height="26" as="geometry" />
        </mxCell>
        <mxCell id="zkfFHV4jXpPFQw0GAbJ--11" value="Get Seminars Taken" style="text;align=left;verticalAlign=top;spacingLeft=4;spacingRight=4;overflow=hidden;rotatable=0;points=[[0,0.5],[1,0.5]];portConstraint=eastwest;" parent="zkfFHV4jXpPFQw0GAbJ--6" vertex="1">
          <mxGeometry y="112" width="160" height="26" as="geometry" />
        </mxCell>
        <mxCell id="zkfFHV4jXpPFQw0GAbJ--12" value="" style="endArrow=block;endSize=10;endFill=0;shadow=0;strokeWidth=1;rounded=0;edgeStyle=elbowEdgeStyle;elbow=vertical;" parent="WIyWlLk6GJQsqaUBKTNV-1" source="zkfFHV4jXpPFQw0GAbJ--6" target="zkfFHV4jXpPFQw0GAbJ--0" edge="1">
          <mxGeometry width="160" relative="1" as="geometry">
            <mxPoint x="200" y="203" as="sourcePoint" />
            <mxPoint x="200" y="203" as="targetPoint" />
          </mxGeometry>
        </mxCell>
        <mxCell id="zkfFHV4jXpPFQw0GAbJ--13" value="Professor" style="swimlane;fontStyle=0;align=center;verticalAlign=top;childLayout=stackLayout;horizontal=1;startSize=26;horizontalStack=0;resizeParent=1;resizeLast=0;collapsible=1;marginBottom=0;rounded=0;shadow=0;strokeWidth=1;" parent="WIyWlLk6GJQsqaUBKTNV-1" vertex="1">
          <mxGeometry x="330" y="360" width="160" height="70" as="geometry">
            <mxRectangle x="340" y="380" width="170" height="26" as="alternateBounds" />
          </mxGeometry>
        </mxCell>
        <mxCell id="zkfFHV4jXpPFQw0GAbJ--14" value="Salary" style="text;align=left;verticalAlign=top;spacingLeft=4;spacingRight=4;overflow=hidden;rotatable=0;points=[[0,0.5],[1,0.5]];portConstraint=eastwest;" parent="zkfFHV4jXpPFQw0GAbJ--13" vertex="1">
          <mxGeometry y="26" width="160" height="26" as="geometry" />
        </mxCell>
        <mxCell id="zkfFHV4jXpPFQw0GAbJ--15" value="" style="line;html=1;strokeWidth=1;align=left;verticalAlign=middle;spacingTop=-1;spacingLeft=3;spacingRight=3;rotatable=0;labelPosition=right;points=[];portConstraint=eastwest;" parent="zkfFHV4jXpPFQw0GAbJ--13" vertex="1">
          <mxGeometry y="52" width="160" height="8" as="geometry" />
        </mxCell>
        <mxCell id="zkfFHV4jXpPFQw0GAbJ--16" value="" style="endArrow=block;endSize=10;endFill=0;shadow=0;strokeWidth=1;rounded=0;edgeStyle=elbowEdgeStyle;elbow=vertical;" parent="WIyWlLk6GJQsqaUBKTNV-1" source="zkfFHV4jXpPFQw0GAbJ--13" target="zkfFHV4jXpPFQw0GAbJ--0" edge="1">
          <mxGeometry width="160" relative="1" as="geometry">
            <mxPoint x="210" y="373" as="sourcePoint" />
            <mxPoint x="310" y="271" as="targetPoint" />
          </mxGeometry>
        </mxCell>
        <mxCell id="zkfFHV4jXpPFQw0GAbJ--17" value="Address" style="swimlane;fontStyle=0;align=center;verticalAlign=top;childLayout=stackLayout;horizontal=1;startSize=26;horizontalStack=0;resizeParent=1;resizeLast=0;collapsible=1;marginBottom=0;rounded=0;shadow=0;strokeWidth=1;" parent="WIyWlLk6GJQsqaUBKTNV-1" vertex="1">
          <mxGeometry x="508" y="120" width="160" height="216" as="geometry">
            <mxRectangle x="550" y="140" width="160" height="26" as="alternateBounds" />
          </mxGeometry>
        </mxCell>
        <mxCell id="zkfFHV4jXpPFQw0GAbJ--18" value="Street" style="text;align=left;verticalAlign=top;spacingLeft=4;spacingRight=4;overflow=hidden;rotatable=0;points=[[0,0.5],[1,0.5]];portConstraint=eastwest;" parent="zkfFHV4jXpPFQw0GAbJ--17" vertex="1">
          <mxGeometry y="26" width="160" height="26" as="geometry" />
        </mxCell>
        <mxCell id="zkfFHV4jXpPFQw0GAbJ--19" value="City" style="text;align=left;verticalAlign=top;spacingLeft=4;spacingRight=4;overflow=hidden;rotatable=0;points=[[0,0.5],[1,0.5]];portConstraint=eastwest;rounded=0;shadow=0;html=0;" parent="zkfFHV4jXpPFQw0GAbJ--17" vertex="1">
          <mxGeometry y="52" width="160" height="26" as="geometry" />
        </mxCell>
        <mxCell id="zkfFHV4jXpPFQw0GAbJ--20" value="State" style="text;align=left;verticalAlign=top;spacingLeft=4;spacingRight=4;overflow=hidden;rotatable=0;points=[[0,0.5],[1,0.5]];portConstraint=eastwest;rounded=0;shadow=0;html=0;" parent="zkfFHV4jXpPFQw0GAbJ--17" vertex="1">
          <mxGeometry y="78" width="160" height="26" as="geometry" />
        </mxCell>
        <mxCell id="zkfFHV4jXpPFQw0GAbJ--21" value="Postal Code" style="text;align=left;verticalAlign=top;spacingLeft=4;spacingRight=4;overflow=hidden;rotatable=0;points=[[0,0.5],[1,0.5]];portConstraint=eastwest;rounded=0;shadow=0;html=0;" parent="zkfFHV4jXpPFQw0GAbJ--17" vertex="1">
          <mxGeometry y="104" width="160" height="26" as="geometry" />
        </mxCell>
        <mxCell id="zkfFHV4jXpPFQw0GAbJ--22" value="Country" style="text;align=left;verticalAlign=top;spacingLeft=4;spacingRight=4;overflow=hidden;rotatable=0;points=[[0,0.5],[1,0.5]];portConstraint=eastwest;rounded=0;shadow=0;html=0;" parent="zkfFHV4jXpPFQw0GAbJ--17" vertex="1">
          <mxGeometry y="130" width="160" height="26" as="geometry" />
        </mxCell>
        <mxCell id="zkfFHV4jXpPFQw0GAbJ--23" value="" style="line;html=1;strokeWidth=1;align=left;verticalAlign=middle;spacingTop=-1;spacingLeft=3;spacingRight=3;rotatable=0;labelPosition=right;points=[];portConstraint=eastwest;" parent="zkfFHV4jXpPFQw0GAbJ--17" vertex="1">
          <mxGeometry y="156" width="160" height="8" as="geometry" />
        </mxCell>
        <mxCell id="zkfFHV4jXpPFQw0GAbJ--24" value="Validate" style="text;align=left;verticalAlign=top;spacingLeft=4;spacingRight=4;overflow=hidden;rotatable=0;points=[[0,0.5],[1,0.5]];portConstraint=eastwest;" parent="zkfFHV4jXpPFQw0GAbJ--17" vertex="1">
          <mxGeometry y="164" width="160" height="26" as="geometry" />
        </mxCell>
        <mxCell id="zkfFHV4jXpPFQw0GAbJ--25" value="Output As Label" style="text;align=left;verticalAlign=top;spacingLeft=4;spacingRight=4;overflow=hidden;rotatable=0;points=[[0,0.5],[1,0.5]];portConstraint=eastwest;" parent="zkfFHV4jXpPFQw0GAbJ--17" vertex="1">
          <mxGeometry y="190" width="160" height="26" as="geometry" />
        </mxCell>
        <mxCell id="zkfFHV4jXpPFQw0GAbJ--26" value="" style="endArrow=open;shadow=0;strokeWidth=1;rounded=0;endFill=1;edgeStyle=elbowEdgeStyle;elbow=vertical;" parent="WIyWlLk6GJQsqaUBKTNV-1" source="zkfFHV4jXpPFQw0GAbJ--0" target="zkfFHV4jXpPFQw0GAbJ--17" edge="1">
          <mxGeometry x="0.5" y="41" relative="1" as="geometry">
            <mxPoint x="380" y="192" as="sourcePoint" />
            <mxPoint x="540" y="192" as="targetPoint" />
            <mxPoint x="-40" y="32" as="offset" />
          </mxGeometry>
        </mxCell>
        <mxCell id="zkfFHV4jXpPFQw0GAbJ--27" value="0..1" style="resizable=0;align=left;verticalAlign=bottom;labelBackgroundColor=none;fontSize=12;" parent="zkfFHV4jXpPFQw0GAbJ--26" connectable="0" vertex="1">
          <mxGeometry x="-1" relative="1" as="geometry">
            <mxPoint y="4" as="offset" />
          </mxGeometry>
        </mxCell>
        <mxCell id="zkfFHV4jXpPFQw0GAbJ--28" value="1" style="resizable=0;align=right;verticalAlign=bottom;labelBackgroundColor=none;fontSize=12;" parent="zkfFHV4jXpPFQw0GAbJ--26" connectable="0" vertex="1">
          <mxGeometry x="1" relative="1" as="geometry">
            <mxPoint x="-7" y="4" as="offset" />
          </mxGeometry>
        </mxCell>
        <mxCell id="zkfFHV4jXpPFQw0GAbJ--29" value="lives at" style="text;html=1;resizable=0;points=[];;align=center;verticalAlign=middle;labelBackgroundColor=none;rounded=0;shadow=0;strokeWidth=1;fontSize=12;" parent="zkfFHV4jXpPFQw0GAbJ--26" vertex="1" connectable="0">
          <mxGeometry x="0.5" y="49" relative="1" as="geometry">
            <mxPoint x="-38" y="40" as="offset" />
          </mxGeometry>
        </mxCell>
        <mxCell id="5LglPCsii5M9vjw72hJf-0" value="FCompressedVisibilityChunk &#xa;cell容器" style="swimlane;fontStyle=1;align=center;verticalAlign=top;childLayout=stackLayout;horizontal=1;startSize=40;horizontalStack=0;resizeParent=1;resizeParentMax=0;resizeLast=0;collapsible=1;marginBottom=0;" vertex="1" parent="WIyWlLk6GJQsqaUBKTNV-1">
          <mxGeometry x="164" y="640" width="250" height="152" as="geometry" />
        </mxCell>
        <mxCell id="5LglPCsii5M9vjw72hJf-1" value="+ int32: bCompressed 是否压缩chunk" style="text;strokeColor=none;fillColor=none;align=left;verticalAlign=top;spacingLeft=4;spacingRight=4;overflow=hidden;rotatable=0;points=[[0,0.5],[1,0.5]];portConstraint=eastwest;" vertex="1" parent="5LglPCsii5M9vjw72hJf-0">
          <mxGeometry y="40" width="250" height="26" as="geometry" />
        </mxCell>
        <mxCell id="5LglPCsii5M9vjw72hJf-2" value="" style="line;strokeWidth=1;fillColor=none;align=left;verticalAlign=middle;spacingTop=-1;spacingLeft=3;spacingRight=3;rotatable=0;labelPosition=right;points=[];portConstraint=eastwest;" vertex="1" parent="5LglPCsii5M9vjw72hJf-0">
          <mxGeometry y="66" width="250" height="8" as="geometry" />
        </mxCell>
        <mxCell id="5LglPCsii5M9vjw72hJf-4" value="+ int32:UncompressedSize  未压缩的chunk&#xa;" style="text;strokeColor=none;fillColor=none;align=left;verticalAlign=top;spacingLeft=4;spacingRight=4;overflow=hidden;rotatable=0;points=[[0,0.5],[1,0.5]];portConstraint=eastwest;" vertex="1" parent="5LglPCsii5M9vjw72hJf-0">
          <mxGeometry y="74" width="250" height="26" as="geometry" />
        </mxCell>
        <mxCell id="5LglPCsii5M9vjw72hJf-5" value="+ TArray&lt;uint8&gt;: Data 压缩的可以性数据" style="text;strokeColor=none;fillColor=none;align=left;verticalAlign=top;spacingLeft=4;spacingRight=4;overflow=hidden;rotatable=0;points=[[0,0.5],[1,0.5]];portConstraint=eastwest;" vertex="1" parent="5LglPCsii5M9vjw72hJf-0">
          <mxGeometry y="100" width="250" height="26" as="geometry" />
        </mxCell>
        <mxCell id="5LglPCsii5M9vjw72hJf-3" value="+ method(type): type" style="text;strokeColor=none;fillColor=none;align=left;verticalAlign=top;spacingLeft=4;spacingRight=4;overflow=hidden;rotatable=0;points=[[0,0.5],[1,0.5]];portConstraint=eastwest;" vertex="1" parent="5LglPCsii5M9vjw72hJf-0">
          <mxGeometry y="126" width="250" height="26" as="geometry" />
        </mxCell>
        <mxCell id="5LglPCsii5M9vjw72hJf-6" value="入口&amp;nbsp;FSceneRenderer::ComputeViewVisibility&lt;br&gt;{&lt;br&gt;...&lt;br&gt;&lt;div&gt;if (!View.Family-&amp;gt;EngineShowFlags.Wireframe)&lt;/div&gt;&lt;div&gt;&lt;span&gt;		&lt;/span&gt;{&lt;/div&gt;&lt;div&gt;&lt;span&gt;			&lt;/span&gt;int32 NumOccludedPrimitivesInView = &lt;b&gt;&lt;i&gt;&lt;font color=&quot;#ff3333&quot;&gt;OcclusionCull&lt;/font&gt;&lt;/i&gt;&lt;/b&gt;(RHICmdList, Scene, View, DynamicVertexBuffer);&lt;/div&gt;&lt;div&gt;&lt;span&gt;			&lt;/span&gt;STAT(NumOccludedPrimitives += NumOccludedPrimitivesInView);&lt;/div&gt;&lt;div&gt;&lt;span&gt;		&lt;/span&gt;}&lt;/div&gt;}" style="text;html=1;strokeColor=none;fillColor=none;spacing=5;spacingTop=-20;whiteSpace=wrap;overflow=hidden;rounded=0;align=left;verticalAlign=middle;" vertex="1" parent="WIyWlLk6GJQsqaUBKTNV-1">
          <mxGeometry x="440" y="470" width="350" height="200" as="geometry" />
        </mxCell>
        <mxCell id="5LglPCsii5M9vjw72hJf-7" value="FPrecomputedVisibilityBucket&#xa;有相同 spatial hash cells 的 bucket" style="swimlane;fontStyle=1;align=center;verticalAlign=top;childLayout=stackLayout;horizontal=1;startSize=40;horizontalStack=0;resizeParent=1;resizeParentMax=0;resizeLast=0;collapsible=1;marginBottom=0;" vertex="1" parent="WIyWlLk6GJQsqaUBKTNV-1">
          <mxGeometry x="129" y="820" width="320" height="160" as="geometry" />
        </mxCell>
        <mxCell id="5LglPCsii5M9vjw72hJf-8" value="+ int32: 每一个cell的 btyes 大小" style="text;strokeColor=none;fillColor=none;align=left;verticalAlign=top;spacingLeft=4;spacingRight=4;overflow=hidden;rotatable=0;points=[[0,0.5],[1,0.5]];portConstraint=eastwest;" vertex="1" parent="5LglPCsii5M9vjw72hJf-7">
          <mxGeometry y="40" width="320" height="26" as="geometry" />
        </mxCell>
        <mxCell id="5LglPCsii5M9vjw72hJf-9" value="" style="line;strokeWidth=1;fillColor=none;align=left;verticalAlign=middle;spacingTop=-1;spacingLeft=3;spacingRight=3;rotatable=0;labelPosition=right;points=[];portConstraint=eastwest;" vertex="1" parent="5LglPCsii5M9vjw72hJf-7">
          <mxGeometry y="66" width="320" height="8" as="geometry" />
        </mxCell>
        <mxCell id="5LglPCsii5M9vjw72hJf-10" value="+ TArray&lt;FPrecomputedVisibilityCell&gt; Cells" style="text;strokeColor=none;fillColor=none;align=left;verticalAlign=top;spacingLeft=4;spacingRight=4;overflow=hidden;rotatable=0;points=[[0,0.5],[1,0.5]];portConstraint=eastwest;" vertex="1" parent="5LglPCsii5M9vjw72hJf-7">
          <mxGeometry y="74" width="320" height="26" as="geometry" />
        </mxCell>
        <mxCell id="5LglPCsii5M9vjw72hJf-19" value="	TArray&lt;FCompressedVisibilityChunk&gt; CellDataChunks;&#xa;" style="text;strokeColor=none;fillColor=none;align=left;verticalAlign=top;spacingLeft=4;spacingRight=4;overflow=hidden;rotatable=0;points=[[0,0.5],[1,0.5]];portConstraint=eastwest;" vertex="1" parent="5LglPCsii5M9vjw72hJf-7">
          <mxGeometry y="100" width="320" height="60" as="geometry" />
        </mxCell>
        <mxCell id="5LglPCsii5M9vjw72hJf-11" value="FPrecomputedVisibilityCell" style="swimlane;fontStyle=1;align=center;verticalAlign=top;childLayout=stackLayout;horizontal=1;startSize=26;horizontalStack=0;resizeParent=1;resizeParentMax=0;resizeLast=0;collapsible=1;marginBottom=0;" vertex="1" parent="WIyWlLk6GJQsqaUBKTNV-1">
          <mxGeometry x="540" y="820" width="275" height="86" as="geometry" />
        </mxCell>
        <mxCell id="5LglPCsii5M9vjw72hJf-12" value="+ field: type" style="text;strokeColor=none;fillColor=none;align=left;verticalAlign=top;spacingLeft=4;spacingRight=4;overflow=hidden;rotatable=0;points=[[0,0.5],[1,0.5]];portConstraint=eastwest;" vertex="1" parent="5LglPCsii5M9vjw72hJf-11">
          <mxGeometry y="26" width="275" height="26" as="geometry" />
        </mxCell>
        <mxCell id="5LglPCsii5M9vjw72hJf-13" value="" style="line;strokeWidth=1;fillColor=none;align=left;verticalAlign=middle;spacingTop=-1;spacingLeft=3;spacingRight=3;rotatable=0;labelPosition=right;points=[];portConstraint=eastwest;" vertex="1" parent="5LglPCsii5M9vjw72hJf-11">
          <mxGeometry y="52" width="275" height="8" as="geometry" />
        </mxCell>
        <mxCell id="5LglPCsii5M9vjw72hJf-14" value="+ method(type): type" style="text;strokeColor=none;fillColor=none;align=left;verticalAlign=top;spacingLeft=4;spacingRight=4;overflow=hidden;rotatable=0;points=[[0,0.5],[1,0.5]];portConstraint=eastwest;" vertex="1" parent="5LglPCsii5M9vjw72hJf-11">
          <mxGeometry y="60" width="275" height="26" as="geometry" />
        </mxCell>
        <mxCell id="5LglPCsii5M9vjw72hJf-15" value="FPrecomputedVisibilityHandler&#xa;level 中预计算可见性数据的操作者" style="swimlane;fontStyle=1;align=center;verticalAlign=top;childLayout=stackLayout;horizontal=1;startSize=40;horizontalStack=0;resizeParent=1;resizeParentMax=0;resizeLast=0;collapsible=1;marginBottom=0;" vertex="1" parent="WIyWlLk6GJQsqaUBKTNV-1">
          <mxGeometry x="129" y="1060" width="245" height="100" as="geometry" />
        </mxCell>
        <mxCell id="5LglPCsii5M9vjw72hJf-16" value="+ field: type" style="text;strokeColor=none;fillColor=none;align=left;verticalAlign=top;spacingLeft=4;spacingRight=4;overflow=hidden;rotatable=0;points=[[0,0.5],[1,0.5]];portConstraint=eastwest;" vertex="1" parent="5LglPCsii5M9vjw72hJf-15">
          <mxGeometry y="40" width="245" height="26" as="geometry" />
        </mxCell>
        <mxCell id="5LglPCsii5M9vjw72hJf-17" value="" style="line;strokeWidth=1;fillColor=none;align=left;verticalAlign=middle;spacingTop=-1;spacingLeft=3;spacingRight=3;rotatable=0;labelPosition=right;points=[];portConstraint=eastwest;" vertex="1" parent="5LglPCsii5M9vjw72hJf-15">
          <mxGeometry y="66" width="245" height="8" as="geometry" />
        </mxCell>
        <mxCell id="5LglPCsii5M9vjw72hJf-18" value="+ method(type): type" style="text;strokeColor=none;fillColor=none;align=left;verticalAlign=top;spacingLeft=4;spacingRight=4;overflow=hidden;rotatable=0;points=[[0,0.5],[1,0.5]];portConstraint=eastwest;" vertex="1" parent="5LglPCsii5M9vjw72hJf-15">
          <mxGeometry y="74" width="245" height="26" as="geometry" />
        </mxCell>
        <mxCell id="5LglPCsii5M9vjw72hJf-21" value="FPrecomputedVolumeDistanceField" style="swimlane;fontStyle=1;align=center;verticalAlign=top;childLayout=stackLayout;horizontal=1;startSize=26;horizontalStack=0;resizeParent=1;resizeParentMax=0;resizeLast=0;collapsible=1;marginBottom=0;" vertex="1" parent="WIyWlLk6GJQsqaUBKTNV-1">
          <mxGeometry x="540" y="960" width="280" height="86" as="geometry" />
        </mxCell>
        <mxCell id="5LglPCsii5M9vjw72hJf-22" value="+ field: type" style="text;strokeColor=none;fillColor=none;align=left;verticalAlign=top;spacingLeft=4;spacingRight=4;overflow=hidden;rotatable=0;points=[[0,0.5],[1,0.5]];portConstraint=eastwest;" vertex="1" parent="5LglPCsii5M9vjw72hJf-21">
          <mxGeometry y="26" width="280" height="26" as="geometry" />
        </mxCell>
        <mxCell id="5LglPCsii5M9vjw72hJf-23" value="" style="line;strokeWidth=1;fillColor=none;align=left;verticalAlign=middle;spacingTop=-1;spacingLeft=3;spacingRight=3;rotatable=0;labelPosition=right;points=[];portConstraint=eastwest;" vertex="1" parent="5LglPCsii5M9vjw72hJf-21">
          <mxGeometry y="52" width="280" height="8" as="geometry" />
        </mxCell>
        <mxCell id="5LglPCsii5M9vjw72hJf-24" value="+ method(type): type" style="text;strokeColor=none;fillColor=none;align=left;verticalAlign=top;spacingLeft=4;spacingRight=4;overflow=hidden;rotatable=0;points=[[0,0.5],[1,0.5]];portConstraint=eastwest;" vertex="1" parent="5LglPCsii5M9vjw72hJf-21">
          <mxGeometry y="60" width="280" height="26" as="geometry" />
        </mxCell>
        <mxCell id="5LglPCsii5M9vjw72hJf-25" value="输入visiblity 涉及到的类有：&lt;br&gt;lightmass.cpp&lt;br&gt;Exporter.cpp&lt;br&gt;lightingsystem.cpp&lt;br&gt;precomputedVisibility.cpp&lt;br&gt;level.h&lt;br&gt;worldSettings.cpp&lt;br&gt;showFlag.h&lt;br&gt;showFlagsValues.ini&lt;br&gt;SceneOccusion.cpp" style="text;html=1;strokeColor=none;fillColor=none;align=center;verticalAlign=top;whiteSpace=wrap;rounded=0;fontColor=#FF3333;" vertex="1" parent="WIyWlLk6GJQsqaUBKTNV-1">
          <mxGeometry x="-500" y="-20" width="300" height="170" as="geometry" />
        </mxCell>
        <mxCell id="5LglPCsii5M9vjw72hJf-26" value="" style="shape=image;imageAspect=0;aspect=fixed;verticalLabelPosition=bottom;verticalAlign=top;fontColor=#FF3333;image=data:image/png,iVBORw0KGgoAAAANSUhEUgAABLQAAAJ8CAIAAABoUm8XAAAgAElEQVR4AezdP2gj1/74/cmPpMlusWVY8Mis7RCrlrvxcu0UZos7F9QKjKutpfILVyrsDSmlIrfxFqsYdEtxI3gSzIIX1uqs8kG+sH/4WYZvkWJznya5VXg+55yZ0cxoRn9sWZbstzDr0Znz9zUK+JPPmdFn/8//9/9e7OarXSvycqudPSmu+cXrpeZ31t/z1dVoeVAtOIj0whsEEEAAAQQQQAABBBZb4PHj5f/93//rr0H+Kj7K1DeKLb8gW1QFuVLLcmudrRM54A9j32ZOfo99Ba873+hA8nlQAdW4cVbX//yMMYvoQGM0SKpiOpF/P336NTj/fw4bVuGoWcr6JW61WVq3Wm/aduGFHJiX+7xgvT2WSFGXP3dN6Xppz/EqRMrlv4yqV8U7zS8EEEAAAQQQQAABBO6HAH8YL+p1lvDsrKbDGLd21vGOqp3O1UKb1mRx1nygfd6t5nMfqp2js4KZUPsgVzy3rPNizqp1jjp+6X7OZBFbxf2tTuWsU5Hal41G29o0zVrF3SfNI1Nutfc3ivOxPGaBAAIIIIAAAggggMBsBfjDeLbek4/meOGMZfUau3+fvP14LSaMs8br9IZrfba29vUND0H3CCCAAAIIIIAAAggsqsBUtvAt6uLvxLxndgUXayAzW/k3sq30TlxxFoEAAggggAACCCCAAAIIIHAtgf9zrdY0RgABBBBAAAEEEEAAAQQQuBMCBId34jKyCAQQQAABBBBAAAEEEEDgegIEh9fzozUCCCCAAAIIIIAAAgggcCcECA7vxGVkEQgggAACCCCAAAIIIIDA9QQ+lwfUXK8HWiOAAAIIIIAAAgggcJcF+IN50a/uzK7gog/0+f/+7/9d9IvN/BFAAAEEEEAAAQQQQAABBK4pwLbSawLSHAEEEEAAAQQQQAABBBC4CwIEh3fhKrIGBBBAAAEEEEAAAQQQQOCaAgSH1wSkOQIIIIAAAggggAACCCBwFwQIDu/CVWQNCCCAAAIIIIAAAggggMA1Be5KcJgtNjtnnU7VvabH9ZtPfyZubU6W5uHM23yuf83oAQEEEEAAAQQQQAABBKxJg0MTGEgY5v00S+u+oj5Vu/XoLHEaurBZzHpzXS81Zf7Nkv/eX8LUf8e5ZsiT7uBfO7mItz0fy/JiafNxmsEVGXGJ3ZqaicfiVvXnPDIrU8F8/qN65lpXXbOi6LkRo3IaAQQQQAABBBBAAIE5EBgWHD569GiSGbYOG5eWs3fzEdfwSc3JNIZPcqKzrWJuI5crtSZqZN2cw/TmI3HUUcGebF03WFsCv4rT3s9tFFv6fx9UnNhg2VJTlbUPcuqK7B6+7593a2WvdreW3230nHLo/5v0q3GEAAIIIIAAAggggMDcCqQGh8vLyz/99K+UeV82duWPY/WTr57LX8ySSJE/hbvVettaKjwPJQ8jWRSTrzM7P/1UnpecUc3VWH59nZ8J1dTJLv+vbdNPaq4pYRopy9DFNzgTf1gVbxiuoorwUkaUM2b5stiaqwVMzspPSanu0tuaUyGodIe5mc9qRkWGXqy1sdu4UEtUL7Nkc4n9rcL+Z0NXCH2W/PLEz4xIxjr0P0W6OPxPtrjnWL3GoR+Ei5IEeeEa7vPCktTY1VfRss67Xf+sW40Ekt2a/JdgR/5L8GvyGwEEEEAAAQQQQACBeRVIDg4lMqzXXz148GDCaU+arXr6wv+bOvKXtL0nf6brlwQJfkLGkr+2j/Sf+ms6pDAVlgpHfvDQn+uk05CWNzQTMyen4u3kDG9QHBzRrQVpNKfsw/RXFTpKapsAleYwZ/Pxs83daqmqwq3IRbcsme3gJQ5hmMOUz4w+GenQ/xTFe5DIz7ba9eq5PnFezQ+karNPJJTtnX7cUXuSVQDvd+HWKk6vcRCOJIW+p9LowaZrvy6/EUAAAQQQQAABBBCYV4GE4FAiwx9/rD98+DB9zhKSmayOujurW82bFKLU7x6/7VlLmzvj/U1sW6cqA2nyM5mV4A5Ar7zUcrdUkGgyS7qWvSI9m22NKhe335bToYb+jCebhrS6sZn4Mxr4PTiiWawkplSa8UCtLO2V1jYONcnlSOvzRuejQyhLss364+Qn+fRF98Y1l3iMKMubf/QzI5KS5Uv+FMVw3W35qPUu3seKw291ntMulL2NsE5Zx4eSwyxLaPj36rtwXav7UZKOdmYtUsgbBBBAAAEEEEAAAQTmWCAeHJrIcPKcob/EiTbU9d4eq0zR+Qf5Ozr8kvyN3rCXXcmoYvkrXBI1Oqum/9rubytNTa9NNA0Z4uZmohYQbOPMm3WpsoERzWJ7p5rEap0MiQ5T2g5ASbCeuL9xfuYjCToT/ikSp6L+X0PUwXp/canOjXxFPzPtE39zqOzVTf4UJfXY+xhsFE06rcu8TbA6ene2airb297P10Y3TO2REwgggAACCCCAAAIIzIVAJDgcOzLs33Po3X4VWkvChjr7iU4KhreDhhqMOlQ5JP+ePUkEZUvfFWxvAjpzmNw+aRr+TWDZnU11r9vFhwn/or/aTJLnl1Lq55p0IiulTlpxbHqmWoJDWvuk8pudj1uVaLBV1Ddk6mspmeHuB3XnoT+utZpZkre9D2a3p5wY67PkbAd7Pr1VJeLEV+x1Hi/23r+/iP1PDMla2+qDZLbpmj3B6thLgaZ0QzECCCCAAAIIIIAAAvMpEAkOt7a2Go1/Hh6+DH7GmXTwQBqvcjhbpTfXqZsF1U13/bsHx+lW6uhHqujW3j17wb1n3kbE1MyhahxOmkmIpBJQkpsKkpChR4+Mns61ZuIFD2ro1KeheDty/TRpZ88eCESGzDJ9ejEH00dwz+Htz8e7InJ99bVUQWDrjUqamnRxRx4fKm90InC8z5KhCJrLzs9hOH1Tnaq1M6v9koGj7vGpXBR9h2S2pO+KbdfzeR3Zqv95YXZHq6ys+j8m5gbFi+he04EuKUAAAQQQQAABBBBAYH4EIsHhq1evDqOvq01U/6Ft7hNrFf3sXns/9uzHcfpuFQcaeX/9S+teozFk76Xcm6i2Znq3q8mNkf5E9LjtA3nO6jgz8OtcayZ+J0N/y1cg+FPsNeqnQ+sOnEyYXlAn7BAUjj6YwXyiubj2vg6r1D2l4VsuJdwyz4YZ87M0SDFYkrB6ozSQcQzXPK/+XR4zo/7HxFHksaXhOt5xduepbV2eHk/0GUvohyIEEEAAAQQQQAABBGYm8Nna2tc3MJjcFnhUsBq7t3wv1pxMY3Jg+YYPlTIL4qLJe4i0uLbDvM0nsrppvdFKcgPhxF8pOTgB/XxUuTtxcNf1YF1KEEAAAQQQQAABBBC4JYHHj5c/ffo1GDySOQxKr31wrr7y0C68uOVH+c/JNMbklIjCewast8ey/517Y/aQVu1qDvM2n7TVTatcno4jeerxvjlj2Jg6MpR7HIkMhylxDgEEEEAAAQQQQGDuBG4oczh361yECemgwp+ov8fSf38Lv+dtPrdAwJAIIIAAAggggAACCNxhgVjmkODwDl9rloYAAggggAACCCCAAAIIpArEgsMb2laaOjwnEEAAAQQQQAABBBBAAAEE5lCA4HAOLwpTQgABBBBAAAEEEEAAAQRmLUBwOGtxxkMAAQQQQAABBBBAAAEE5lCA4HAOLwpTQgABBBBAAAEEEEAAAQRmLUBwOGtxxkMAAQQQQAABBBBAAAEE5lCA4HAOLwpTQgABBBBAAAEEEEAAAQRmLUBwOGtxxkMAAQQQQAABBBBAAAEE5lBg1sGhWzvrdJqlrFDId6zLcdWdQ5VxppQtNieZf2jh4/SeWOfWxcaYgGFpFtUV5oUAAggggAACCCCAAAKLIzDd4NAEDxLyeT+1sSO/bKnpB41j4umx4gPown5ksl5qBrHomN1erdr4C0+fto8mes3S+tXmkdhqlG3ilAzdNEP3UdNInPs0C3V8fiYfGT2T+Kc0Uqgq6eA//gGb5nzoCwEEEEAAAQQQQACBuRK4enD46NGj662kVcxt5HKllu5lNbM0YW+tw8al5ezpJOSETW+z+ljTtgtHSVFJRGz8RYyyHWtKergrTsBMddQ0xl/QVWpKZFhx2vu5jWLL0jNRxzn9IyUSCr4oLFm9xm5uY79tWU65tlrL7zZ6Tnm6gfpVpk4bBBBAAAEEEEAAAQRmInDF4HB5efmnn/6VMsPon91SyduBedaJRDwm26ZyU/oPd6m3VDgK6oRzcX7+yk/m6BRQdbVab0uT52NmJ3WHklR0qyax6f3RH+1T99Uf2g8MTBrN5JrMntjEpY+18G7qtL3muxL0Sniy3U9emfW6oY24ukQlwdTLLEHlSxPmOdzWLDB9Srr//j/9S9YfVxKeNVfPJyoTdY5PI5izV023jTaxkpajxvWryXX0BAZL+nPWR9niniOh36H5PxGxk/I2u/PUtqx2vda1LImVe8a/W5NPmD32J2ywW0oQQAABBBBAAAEEEFgggasEhxIZ1uuvHjx4kLJOp+LtkPTvLTwqyF/e6uWUK445Gv6vBCHlUEXp0I8PpZ29J3/o69f4Ka9guKcv/BlE/ujv9xkZ2s/grWW8BUg/EsGGJhN0rA7GXPiE0+7PrT9Y60TSW5a9onefrqrZ9U6Pu9Y480xc4IRTUhNxa8Mua4pzfwXmKKi2VHjRbPYvzXc6IZy0HIkq/WpeZ4Ml8VEs97l8Atv16nnojL5Y/R3I6oznaSrZT+S2SR0oSnp6mrt8Q3PgEAEEEEAAAQQQQACBORKYODiUyPDHH+sPHz4cdxHulgrl9Ia9XO5AxTQDr1ZR7+WzLhu7GznZ5BdpYk6F/kC3rVOppvejdo/f9qylzZ2x/3b32sp+QZlEZiV4akrQpxm6faA2HOpaOmAw2ynVLkS15zDccGAt/YLIKiILT5m2F1seyf5GoQiyXMHc+l1L1PJGJmJv7sgK3G0Bvjw9lsgnYZ7JtvEFWilTCg8ZPU5fnarnzdmsWjnHp2E6sy/qvrNlL/X2RdhcmqXMqtRIWI5sCVWRsGz/DHaEDpaYzvv/aqHexXuvZH0lCPUl+tfpR718SRIeqaxyEPRK/e5H+aTYmbV+ZxwhgAACCCCAAAIIIHBHBSYLDk1kmJ4zNEjB7sp8tWtlVzJSqvNa8vvdhYrKRryiTaz3F2qbZf8lGSDZ/Gdek278672V/JplnX+ITcPv0wwtGc4gSNCBQX+7Zixr5c/D/B574SOmLUGyovNe/tz89+a3lrQlhtKhjreu0fNMWaBEQZNtoYxeI5PIDE3Qm89AeaiKOjQBmw7AZFPnidr0Gb40ScsxUbGJ4kzeb7AkNop52/voi55X897dhv0dvN1a3vs/F4KvY9p+/cTuKEQAAQQQQAABBBBA4K4JTBAcjhcZJgP5uZfwRsHkmlLa/XAh//pNzONDrN6H8J7AftuEjX/BhtHszqbKEV188MOCfrOhR0FiSqWniq1s6buCrbOaXuZwaOPoSX8V8YUnTNuKxJbRbgbfnR+fSszsbJfUGs3NcuPPM7ZA03vSlAbHjZT4q9OpuciZKbxJWY5OJ+oErsr0qZsOB0uSRtfbRGMnzCfNLzSJynx1VeW6exfv/HJ+I4AAAggggAACCCBwLwQmCA63trYajX8eHr4MflKEglvv1FcymA17Xi4ucifhYGv/gTQ6F+Q3kYdMSk2TVhpsEkt5SYCjn+ZS0Q+P0fsDhzyGZLA7/WgWf3uhunMyuL1Qz61jJjPYzpRMsvAJM3WDQ3o7ITflSSphnLR5erbpC4xJxlfUid6eF72se3YsEzs4Xa/Ev8SpFWInBpZjnj0TTuAOlsT6sHQCU2VZzcuteWtxa/3PllsyNxZKb6rQv0Ex+0TtYiVQjJPyHgEEEEAAAQQQQOAOCkwQHL569eow+hrLQzbsmTyP/JHdONA3+yW002mroFxyOOGb9CSl5n3jRVAjfKD/9vduSuxWg9F0lfZBPvIYknC7xONW0dz1FjppAipV0Gs01D2H471GLTw87fF6jNbqHp/2LNtestpvzEM40+YZtx1YYNDvBFOKrK5+GnSRfhCdRno9/0zacvzz6nLsqq+hCL0GS/RJsy55/qv30rcadvT/qghaZMxWVRUZSpbY+7zpp5ia+zn9tvxGAAEEEEAAAQQQQOCOCny2tvb14i9Nbk47Klhyp576KoLFec3htK80JT/bNjyGv9Xrotdlj/i/DAMz1E92lYf3xELQgXoUIIAAAggggAACCCCwiAKPHy9/+vRrMPMJModBm/k7OFffHWgXXizYVw7M4bTHn5IETuaLH8/0PkxJ4wXPV52/D4glD6GRhKns+w32CY+cpI4Mg8TiyOpUQAABBBBAAAEEEEBgwQXuRuZwwS/CQk4/8n2J7f0NsmsLeRmZNAIIIIAAAggggMA9FohlDgkO7/FngaUjgAACCCCAAAIIIIDAPRaIBYd3Y1vpPb6eLB0BBBBAAAEEEEAAAQQQmIYAweE0FOkDAQQQQAABBBBAAAEEEFhwAYLDBb+ATB8BBBBAAAEEEEAAAQQQmIYAweE0FOkDAQQQQAABBBBAAAEEEFhwAYLDBb+ATB8BBBBAAAEEEEAAAQQQmIYAweE0FOkDAQQQQAABBBBAAAEEEFhwAYLDBb+ATB8BBBBAAAEEEEAAAQQQmIbArQeH8l3qZ51O1R2ymGyxKXWaxeyQOpxCAAEEEEAAAQQQQAABBBC4hsDn12ib0PSrr7569OjRv//974Rz1nqpeVSw2/u5Uivp9BXKsqpHq7Gbr3av0Hq+mri1s4pjtfc3DldkUUvB5AZLglNW+yBXnJZlv1eOEEAAAQQQQAABBBBA4B4KTDk4fPbsmeu6//M//5MSHw4Kt4q5q4c3qxkJoi4HO124Eh0ZemGzW5NFxULofK7qr0nyqCrEPsgdPmkelZuld/nquX+O3wgggAACCCCAAAIIIIDAFQWmvK30iy+++OWXXzY3N7e2/jLejKLbSs0OUtlEWnMlXup0mqXwXlK32lF7UM+apXXp3KTaLGupcKTqW8HuU6+abhttYqnspepB/4Q696tJufSkXoMlutic01thdSehcd1S0/RsphfMJ17e78c/yhb3HKvXOBwnSnafF2zrUtXt1uptyy48H7Yj1x+B3wgggAACCCCAAAIIIIDAcIEpB4dmsJcvX66uro0dHwYzdGuSEzPvnLLssYy+nr7wi4ZGREG1pcKLZrPf5DsdZ65lvAGkb4kq9b2OElX61bwRB0v6U5Fothyfmpy1CxV/L6hdMGPpNmnl/Q4tHe+165EEoFNJvM3SraqZSl29jbZ12OhZzp4OlUP9cYgAAggggAACCCCAAAIITCxwI8GhzELiQ9f925dffjnBjNwtFXT1Gru5jVzuoB1raVunu0F5ZiVrtYob+6rSZUPKg1vv7Iu6NN+VqEkCtqXevjQxb5Yyq1Iku1ilRP3otqofa1UFjGpYXa56GiwJJmMmKbs6TT/BuGojaNDt0uaOym3qV1q5f95yt2XZvYv3XsH6ShC+2oWjIJOpzq6XJMNo0oamcvejLNPOrHlN+YUAAggggAACCCCAAAIIXFXgpoJD1/3rzz///Pvvv48/sexKRir3To9NVuwkFh323uoTrXh5bAATZemoSVJsJ2qn5vkHFSmaV39baT9Z2HojQ6lALEjWDZb47c0kTb9+mf7tR3fvL6L3QKaVRxrLsj/6j9Q5r+a98HW3obpytv19o9mdTYkb/bRhrAPeIoAAAggggAACCCCAAALXEbiR4FAiwz/++O/r16+vMDM/D6bzaVdoP7RJtvRdwdaZRi9zaGrrdKLOJKoYUd10OFgS6bcfsAXFtk5MWus7m+pBo70P/kNi0sqDhubAfhK+udKUdT9chGtld56q2FDHu+FyjhFAAAEEEEAAAQQQQACB6wtMOTj8888/v/12+7ff/pMeGeq76cwjYaJfXdg9fqsyfE5ZP9Zlz+6n+4Yv038gzfBa/bO6fkd9b4T3Ms+e6b/3n0YTKpHvzJBZyZNmulV5CkwwSf0gHK8Xsy5z02Q4gksr90e3dC7UiyGl0K15LG5NT8Dvy4Sdl8H2U9U++0RtiL14F/TFAQIIIIAAAggggAACCCBwNYEpB4cnJyc//PCP09PTq8ymW8ub9J0EPI36OF3oJ7JMMJQX2kmLXqMR27ZqupFbD/u3EeqieEmraO5hjA3b71Ayk6EvckwrDzXX0WEoGalvNezox970Bzd7Sq2LD/72U+lA5xIvT4/9LGWoTw4RQAABBBBAAAEEEEAAgYkEPltb+3qiBjOqLNk8lTeLfd3fjAafbBh5tKnkCyWMy9dCgZuEbinlCb3LnZDquwv3c6GoMqFarEg/N1UejROLZmO1eIsAAggggAACCCCAAAIIJAk8frz86dOvwZnPg6M5OIh/S8SYX/03BzO/5hTkITS7VvOo0qla48aH2qqfWLzmBGiOAAIIIIAAAggggAAC911groLDyMVo72/cp5SYekhpNQIw/I08Mkc9iZUXAggggAACCCCAAAIIIDAVgXndVjqVxdEJAggggAACCCCAAAIIIIBAikBsW+mUH0iTMijFCCCAAAIIIIAAAggggAACcy1AcDjXl4fJIYAAAggggAACCCCAAAKzESA4nI0zoyCAAAIIIIAAAggggAACcy1AcDjXl4fJIYAAAggggAACCCCAAAKzESA4nI0zoyCAAAIIIIAAAggggAACcy1AcDjXl4fJIYAAAggggAACCCCAAAKzESA4nI0zoyCAAAIIIIAAAggggAACcy1w68GhW+ucdTpVd4hSttiUOs1idkidmZ2aq8nMbNUMhAACCCCAAAIIIIAAAnddYMrB4VdfffXNN9+koK2XmqPiwJSWacXZUrPTaZbmImpMnqNbkyWf1VwTA6tj9SOBrgkya8OC4uQeKUUAAQQQQAABBBBAAAEEbkBgysHhs2fPvv/++/T4cHAFrWJuI5crtQbPjFGymlkao9atVZHIsOK093MbRbW8y8aurHS30bMsu/Bi5zgvh065WVq/tfkxMAIIIIAAAggggAACCCDgC0w5OPziiy9++eWXzc3Nra2/+EMM/x3dVmryaZJbU7k2SbJFs4Ju1WTeTEClQy/pfKlwpOpbwYZPr5puG21iWSZ7aTJ4oc79ajrLpyc8WBJbh18hNbrLFvccq9c41HGvxMD5ale6OK/W2/LLzqxZ3Zoc2oXnZA9jtLxFAAEEEEAAAQQQQACB2QtMOTg0C3j58uXq6trY8WGward2VLDNO6dccYJyc/D0hV80NKAKqi0VXjSb/Sbf6d2naxlvAOlTokp9r6NElX41b8jBkthcrGCU1OjOfS5rader57Gm7rZaWO/infzbOpQ8orNH8jBmxFsEEEAAAQQQQAABBBCYucCNBIeyCokPXfdvX3755QQrcrd02NTYVRtND1R+LfyyrVO1LdOUZ1ayVqu4sa8q6e2aeuOmqm5f1KW53rxp2Uu9fX8np7WUWZXTZherFJq2qh9rVQWMPRlWjau3gA6WqK5Dr4HJhM6ZQx0D9i7eR0942c5e4+8maOx+VJtMJYvICwEEEEAAAQQQQAABBBC4VYGbCg5d968///zz77//Pv7qsisZqdw7PVa7L63WSSw67L3VJwbKYwOYeEwHXZbVPlF7Os8/SATmvfrbSvvJwtYbGcouHHmPipGagyV+e+/3uJP5qNdiGqkNtGpQCUPztVB5rGveIoAAAggggAACCCCAAAK3IHAjwaFEhn/88d/Xr19fYUF+Gs3svrxCB8OaZEvfFWzzYBiTOTSVdTpRZyFVjKieIDpYMqzb1HP2E/9BqhKUlk1gmCMyTPXiBAIIIIAAAggggAACCNyawJSDwz///PPbb7d/++0/6ZGhUzFf52C+0SG08O7xW5Xhc8r6qTN7dj/dF6qUcOg/kCbhVGKRrm+SeOa8ebRMP5NoWQMl+jszzlKfPZMwjs5w2norq5zVNyDKby8/qZ+4oxpln6gdrfr+Q/WWFwIIIIAAAggggAACCCBwSwJTDg5PTk5++OEfp6enV1lOt5Y36Tu19bI+Thf6gS4TDNU1jwqVFr1GI7Zt1XQjez6D2xfTSsYbUEeHzvbQR5Fmd57a1uXpcfyhNeONQC0EEEAAAQQQQAABBBBAYGoCn62tfT21zqbYkeTuVCpPviTwil+BOMW5XLUr2UoqT18dsgS5C7HstA9ysXD0quPRDgEEEEAAAQQQQAABBBAYX+Dx4+VPn34N6n8eHM3BgQ6WQvPwvyQwVLRIh+fV/K7VPKp0qlZCiKsXO5ioXKQFMlcEEEAAAQQQQAABBBC4OwJzlTmMBIftff2tEneHmpUggAACCCCAAAIIIIAAAnMkEMsczlVwOEdMTAUBBBBAAAEEEEAAAQQQuNsCseBwyg+kudt2rA4BBBBAAAEEEEAAAQQQuKsCBId39cqyLgQQQAABBBBAAAEEEEBgAgGCwwmwqIoAAggggAACCCCAAAII3FUBgsO7emVZFwIIIIAAAggggAACCCAwgQDB4QRYVEUAAQQQQAABBBBAAAEE7qoAweFdvbKsCwEEEEAAAQQQQAABBBCYQIDgcAIsqiKAAAIIIIAAAggggAACd1WA4PD2rmy22OycdTpVN3UKbm1EBcsynTSL2dRO5vnEGAuc5+kzNwQQQAABBBBAAAEE7pDAdIND87e+BDzeT7O0PsdWera1WGimC/ux1nqpKWtplm489jIDDQkUJ4bMlpozmXk6o/8xkM/DdD8JV16aW1OfTLnm5sD7oOrPgO6z/9ENPsOd+Cdk4gtBAwQQQAABBBBAAAEEFkLg6sHho0ePRq7QLhzN8Z/WrcPGpeXs3XzgN9IprUKrmNvI5UqttPNDy1czS0PPT+vkWIwpn4QrLvBqS5OAsOK093MbRQG9aOwq24O2MDhl+ZR2q/mcKtE/u42elLcPcnLglKcb2U7LnX4QQFsKPXwAACAASURBVAABBBBAAAEEEJiuwBWDw+Xl5Z9++lfKVNTf3/JH9q6EXvKH97brbX2suTpdY5Jj4RxjKF3m7bQ8k3SNrqxTdqaw39wk2UySx8/pBbsr3arO+ehy7ziUtvJLTPqoW623raXC81jyMGVZkm2SVJgkFf1OvJghPj1p3l+dH1ckzTltnH656cf3ScQJKkdnpQMhObdUOFKY/d2nXrVEn5RJ+j0bNDVgtCSdceQnob9AfblVTk+9gqtpJUwpvjTVYBBclUZe2eKeY/UahybSblVrXXVaR7aReuqN+7xgW5eqbrcmHxF77I/IQE8UIIAAAggggAACCCCwMAJXCQ4lMqzXXz148GCyVdp78te5fsmf8mXvUL13Kt59d27tSP4o1y+nXAnVUEX95msZr5KUSvDjx06q0tMXXrOlwotm0+/CLnyn0oMScvglqq56jZX1MlX9f4MhojFDf3qR1fkZsyFz9jse8XsoTn/h0VnF+wwmn+RjJU1yEG2wZFLGvlV/fq0TlcOzV/Q+5FV1hXunx93EKfUbmaNE8IFKKt5r16vn4ROylfSosNQPGb3+qupjInX98LGn8svzvEE6vCaOEUAAAQQQQAABBBC4osDEwaFEhj/+WH/48GH6gBLsqbSe+rPbpF9MVds63ZWMYqnlbqm4r2f29W3s64196o/vSLne7xceI2humb2IKjmp22ZWghsC7Yu6JC3NnkB7qbcvdcybpcyqZZmQQ4bViU21t9Cyusdve9bS5s7Yf/p70zDdhoeOrk52JPoz0QFP+pzDaxxyPBaOQVOzahUNzmVDzM1SpfPhPomwg2iDJamMoz4J4fW23sgHwd7ckYvpbssH5PL0WAK5BLf40oxMHDzctRzrLnsX74NinZzUH1EJA00W0ZxbL6n/h6HThqag+1G2mNqZtaApBwgggAACCCCAAAII3EmByYJDExmOnTOUyCRv0i/Kzk/FZFcy8k7nhVTx+wu1+1Re0XKTSTJn9L9+cyu01TCeCDR//eu/5mW8ExX+nX+QP+3Ny4QfhSO17zR45Myk+wZ7byWfFenWdO5Pz6xCbmNTo+hEqI4r+tsj43P2Jjfi1wgcb1YDaLFeh/skwg6iDZbIKCMYkz8J0dm9u9BB2Kq1vqLyhsZ5tFsKeLRv8673UecC9ZtuLa//H4H8/wWnEtp4nN3ZlNH9q5nUC2UIIIAAAggggAACCNxNgQmCw7EjQ+9Os1wuFBmG9LofLuRdkIoxDxfpffD2+/nlOtUTahUcZkvfFWydEPMyh8GZkQc6DaWzjbL5MnhUjmwtje8bDG4yM6GCdfGhH1WMHEVVUGlRHXuof4uta8w5MtxInEjtCd+kTHIQbbBEjZTAaI34JEQneH58Kv+bwNkuqfDMZPNSphRtp9/FwBNqSJH9JMgxBxW87ax+YjC781TFhvr/KwR1OEAAAQQQQAABBBBA4D4IfD7+Ire2thqNf45fP7WmpJ4qjqNya2W/jvprvJt92ysUbK/8sqfySP75+G/1nJVCvHDUe3mMSmLaTmW9ChV56EhVngsqMc6eU1iSbFKn4nUYPMVk1ADqvHo6S6HsSH7Sm58ESCW9m3GcOat9mN6wEu7kPwYjqu2v4+IEjeRADypbLg/DhUOOByY5iDZYYvqLMA4ZIvWUt8ZNCc/adfPcGFV3YEpeB/7Signg/dZeZYkBy46jNhfrMN+tNZ8c5mU3qVvTH4nexTtdcX1nU+2FDm0/lYz2E/kY+hW87viFAAIIIIAAAggggMDdE5ggc/jq1avD6OuqHJJ6Ct9SqMIn9de87PQzaT2VeaufpvSun42pz/UaDblN7WovCb2CO/Ek66WehuI9dES+0sCfhe66fZCPPsVk1ICtorkhMVRvCnMeDyc0pknlhQtGHI+eZBRNdRctCTOOGCzxdPf4tGfZ9pLVfmOiu7Qp6Sxl0EUCeHAuODBzk0fnei9JHas7Y/WDkYJLnJQo1rlEcwOk35bfCCCAAAIIIIAAAgjcRYHP1ta+nsd1eekpP2688SnKvW1HBUuSdeFnk9z4qFccYNY4409znhn13OxJP1H6UaiSeg39r4TxOaiJAAIIIIAAAggggMA8Czx+vPzp06/BDCfIHAZtbuxA/hA3314oWzrliZGSl/K+le7GRgw6PldfeWgXXszvNxbcIk6gNPJgnhnPq3lJ6QbfmzJyLVJBR4bR7Og4zaiDAAIIIIAAAggggMAiCsxV5lD/Le4rtvc3yNb4GPIbnBAGhwgggAACCCCAAAIIIHBtgVjmcK6Cw2svjg4QQAABBBBAAAEEEEAAAQTGE4gFh3O1rXS8FVALAQQQQAABBBBAAAEEEEBg2gIEh9MWpT8EEEAAAQQQQAABBBBAYAEFCA4X8KIxZQQQQAABBBBAAAEEEEBg2gIEh9MWpT8EEEAAAQQQQAABBBBAYAEFCA4X8KIxZQQQQAABBBBAAAEEEEBg2gIEh9MWpT8EEEAAAQQQQAABBBBAYAEFCA4X8KIxZQQQQAABBBBAAAEEEEBg2gIEh9MWpT8EEEAAAQQQQAABBBBAYAEFZhkcurXOWadTdWfFlC01O51mKWvGM6PLBLyf2o3NIzpu8mrdmpqGzMEceLOS99liU2Z4c5NLng6lCCCAAAIIIIAAAgggcN8Fbio4fPTo0a3TrmaWbmUOI8eVgLDitPdzG8WWZV00dnMbudxBW+bqlGurtfxuo+eUm6X1W5k8gyKAAAIIIIAAAggggMD9FLiR4HB5efmnn/41DNTkx5rFrFvVSTOd3/OOz7y4yK/jqgSgyrOF4qVwGtBPRfo5N52Lq9ZUACZTWCochRNxKiTL6R8JzLysnUnTmdFlSjcybggjW9xzrF7jUAJDebWqta7+fdi41AWW1a3V25ZdeH5jqU1vHH4hgAACCCCAAAIIIIAAAoHA9INDiQzr9VcPHjwIxkg/ePpCB3AqhHvRbHrHEhd95+8FteRNpeAlAP1yiQzLKu7zXk4lvFXV3pPQK/0llc22UhWOtoomX7dXyro1NXp7P29CtamP25+R+7xgW+169bxfZFmyE/VIlumHjK3DRs9y9kgeho04RgABBBBAAAEEEEAAgZsUmHJwKJHhjz/WHz58ONac7Yu6JPFkF6XUtpd6+5LTM2+WMqtBB16ub19tu1za3Fm33C0V/fXMbswNXR6Ko2zrdFf6KRWL5tRlQ96q7ZuJr1ZRtZfsooo22/ulUL0bGtfdlpF6F++D6ehEpYoMZQJ1PzTtfhQTO7MW1OIAAQQQQAABBBBAAAEEELhRgWkGhyYyHC9nqBdlYiQdCElkdKIis/MPKlIMvfw46v2Ft+syu5KR073TY70b0wrKvTaSkzMnQn2EDoNtpXmvmk7SqQp+1s6rPOVxQ1NQY33sz7Fby+ttrhKlOpXw1tloE94hgAACCCCAAAIIIIAAAjcpMLXgcOLIcMxV2SaJuL6zqXJrvQ/n3Q8XchBk1czTX6R8zP7i1fQuT1VoF16Et3He6Lj2E+8RqqHZtE5UbjRYV+gMhwgggAACCCCAAAIIIIDAjQt8Pq0Rtra2Go1/Tqu3UD/qLsGK995kF9+0K47jlDudsl9Nlw/GW+q0eiBNoX2QK5q6/d5kX2q+uubdaph7sy33McozYKrBztJ+TT+rebVxQztV1RQkBiw7jop4dfLQrTWfHKobHc1Nj7Lh9J2qlX1iSyRsjtV7XggggAACCCCAAAIIIIDAzQpMLXP46tWrw+hrOhPvNRoqoyYvuXvQRG6tovniB1MstwrmgojOKzK/gh2jkdL+m7VSU91qqPeTSl3ZtupU5GmlpsKNjaszhM528ChSu3CknpGjH7HTPsjrB9Vkd57a1uXp8VXTof01coQAAggggAACCCCAAAIIjCXw2dra12NVnH0leVLLUcFWCT7/MS2zmcONj7uuHk1qp8a0lmQRJVZU2c5Y1nE262cUBBBAAAEEEEAAAQQQuBcCjx8vf/r0a7DUqWUOgx45GCVwXtXfcx/5Bo5+Gx0ZSkhMZNg34QgBBBBAAAEEEEAAAQRuXGBq9xze+Ezv1AASH25Uk1ckm2ZJGCbTUIoAAggggAACCCCAAAI3JzDH20pvbtH0jAACCCCAAAIIIIAAAgjcewG2ld77jwAACCCAAAIIIIAAAggggMCAAPccDpBQgAACCCCAAAIIIIAAAgjcPwGCw/t3zVkxAggggAACCCCAAAIIIDAgQHA4QEIBAggggAACCCCAAAIIIHD/BAgO7981Z8UIIIAAAggggAACCCCAwIAAweEACQUIIIAAAggggAACCCCAwP0TIDi8f9ecFSOAAAIIIIAAAggggAACAwIEhwMkFCCAAAIIIIAAAggggAAC909gpsHhV1999c0336Qgu7XOWSf0U3NTKl67OFtqdjrNUvbaHU2vA7em1i5LNgeeg7zPFpticnMW01sCPSGAAAIIIIAAAggggMBCC8w0OHz27Nn333+fHh/OSHI1szSjkcYbRgLCitPez20UW5Z10djNbeRyB21p65Rrq7X8bqPnlJul9fE6oxYCCCCAAAIIIIAAAgggcBWBmQaHX3zxxS+//LK5ubm19ZeUyaoYKad/JFLy0mgmb+ZWVT6tWcyaZFqz6KoEoEq4hQKncPqx6qUe/eSb7q1aU5GYDL5UOAoycv1WXlfRJtEUZr+ySuilTSatfHDZ2eKeY/UahxIYyqtVrXX178PGpS6wrG6t3rbswvPoNLyT/EIAAQQQQAABBBBAAAEEpiIw0+DQzPjly5erq2sp8aFT8XaWqm2fraJJoO2Vsm5NhXTt/byJnSyJlioFLwFoF77Te0QlbCuruM97SVd+fCgl9p7EYEmvSCu7cNTfwpnQJFK531vCZPTJtPJ+S8t9XrCtdr16HiqzZOPrkazODxlbh42e5eyRPAwbcYwAAggggAACCCCAAAJTFbiF4FDmL/Gh6/7tyy+/HLWWVnFf9ldKlk9Ffe39kkmv6VZejlGdt5Y2d9Ytd0tFfz2zLXNDl4cCKts63ZWcZKlYNKcuG/JWZSd1q/aBSlfKBk6JIlf8DZx+k/6g4cpSX20DNa+ByYwo99tZ7rZMunfxPijQKUcVGcp6634k3P2oJpZZC2pxgAACCCCAAAIIIIAAAghMV+B2gkPX/evPP//8+++/Dywm2Faar+rtlZbOmqlqfhrNa+IHVO8vvO2X2ZWMqnV6bNoF5V59Sc6ZE95775dpJXf3qR2qR5LEC8VgA01M5fZJEBP6fQ1MxjuRVu6386t97E+tW8vrXbUS3DqV8I7ZWBveIoAAAggggAACCCCAAALTFLiF4FAiwz/++O/r16/HWofedqlq2oUX4X2VdmZVla7vbKokW+/DeffDharlp9fMU2ekXNUa9VLpRh2SqX/7+cDkZs72wN1/A5PxWqaVxzq2nww+ObV1olKiwXJiLXiLAAIIIIAAAggggAACCExXYKbB4Z9//vntt9u//faf9MgwuOfQJM38Ww310zujD2UxNXWyz9LJvNYbFU6ZHGDHPHUmIcnn83kPpOlW5WkvEngemWfbdMK3KfpV9VdfqPmYysEQoW+YGJiM1zat3O/a0jGgF0NKoVuTJ+6ok2bhsuH0nXqXfSIpTe9YveeFAAIIIIAAAggggAACCExZYKbB4cnJyQ8//OP09HS8RayVmupWQ72fVHaXyvZRp+LFTqq0oWJBecndg+ZexFbRfAOEKZZbFHPhexS9UvkV7FTVRa2ivtWwf3rYUUrlhMnoXtLKQ0Po6DCUjFRxqjyCVT9Zp32Q1w+qye48ta3L0+OxsqChvjlEAAEEEEAAAQQQQAABBMYV+Gxt7etx685JPXlki+QLZSdo8OTSW5xY2mTSyhOmuq4eTWqnhrIqiyixojwyZ9R+14S+KUIAAQQQQAABBBBAAAEEUgQeP17+9OnX4ORMM4fBqByEBM6r+nvuI1+80T+tI0OJhIkM+yYcIYAAAggggAACCCCAwPQFPp9+l/Q4sYDEhxvV5FayV3bg4ajJNSlFAAEEEEAAAQQQQAABBK4usIDbSq++WFoigAACCCCAAAIIIIAAAgh4Amwr5aOAAAIIIIAAAggggAACCCAQF+Cew7gI7xFAAAEEEEAAAQQQQACBeyhAcHgPLzpLRgABBBBAAAEEEEAAAQTiAgSHcRHeI4AAAggggAACCCCAAAL3UIDg8B5edJaMAAIIIIAAAggggAACCMQFCA7jIrxHAAEEEEAAAQQQQAABBO6hAMHhPbzoLBkBBBBAAAEEEEAAAQQQiAvcenDo1jpnnU7VjU8s9D5bbEqdZjEbKks6HKOrpGaUIYAAAggggAACCCCAAAIIzDI4XC81R8WBE16QbKnZ6TRLo6LGCXvtV3drMuGzmmuZAzlWP/I+8vKDUhPExs9GqvIGAQQQQAABBBBAAAEEEJhPgZsKDh89ejTeglvF3EYuV2qNVztWazWzFCq5VlehfrxDCQgrTns/t1GUyV00dtU8D9py0imHA0C3VnZMi24tv9voOeVmaX2wN0oQQAABBBBAAAEEEEAAgXkWuJHgcHl5+aef/jXesv20m6ltkm86O6eTddGsoFs1uTsTfengTZotFY5MNi/clT6WnajRJmqQ4UOYaehqe47VaxyaqLVVrXXVqdZh4zKoog7casULDXVxt1ZvW3bheSy3GGnCGwQQQAABBBBAAAEEEEBg/gSmHxxKZFivv3rw4MHki3VrRwXbNHPKkaBLFT594ReNHX0NNhk+RH/K7nOZSbtePe8XSVxZah4Vlvoho+w2rTi9xkGj168l4WPPcvZIHvZJOEIAAQQQQAABBBBAAIEFEJhycCiR4Y8/1h8+fHiVpbtbKgnXC23gDPdiW6e7/sZOK7OStVrFjX21y/OyIeVq6+fAy2siez3llGpiDR+i34G7LVPpXbwPSnS+UUWGloSMJosot1CWJTT8e/VdUEsddD/KaHZmLVLIGwQQQAABBBBAAAEEEEBgvgWmGRyayPBKOUOFlF3JyL+902OzgfNEBX6hV++tPtGKl4eqxA+9JucfVHCoXiOGMJWCf3sf9Uz0e7mfUN1zqMJRp3Im+1p1CrK9nzeBYtCGAwQQQAABBBBAAAEEEEBgIQWmFhxeMzIM8Pycm87dBaVTPRh3CPvJ4GNQTWxqZ3ZW1P5Xp6KeX2r2wqrj8INqpjplOkMAAQQQQAABBBBAAAEEblbg82l1v7W11Wj8c4zeVBBVMfVkB2n+Y9Cke/y2VyjYTrnTKctm0Z7anRmcHHKgHkhTaB/kikPqeKfGHkJiwLLjZFZll6hq6taaTw5VklDdZCjvexfH1WKt6vUq+0slPpTnmupnrmafyKx7F9G9pl5NfiGAAAIIIIAAAggggAACcyowteDw1atX112ibN3cz3RM9NWon26WC6N6lKe/7Dn+M2xGVVbnxx5CosOK42y7VsvczGgXjjr+dNoH+eiDasIjZ3ee2nIb5HHkSTbhChwjgAACCCCAAAIIIIAAAnMo8Nna2tdzOC35iggdJfrpuJuY4oghovnAcScgX6FRdlQaM+kBOeN2Qj0EEEAAAQQQQAABBBBA4MYFHj9e/vTp12CYqWUOgx6vcaAjq1D74GsGQ2XXPBx/iPNqftdqHlU6VcvsFx09su5c9soSGY62ogYCCCCAAAIIIIAAAgjMl8BcBYcRmvb+xk0HWaOGkPhww7+xMDK3lDetYo6EYYoNxQgggAACCCCAAAIIIDDfAvO6rXS+1ZgdAggggAACCCCAAAIIILDoArFtpVP7KotFd2H+CCCAAAIIIIAAAggggMB9FiA4vM9Xn7UjgAACCCCAAAIIIIAAAp4AwSEfBQQQQAABBBBAAAEEEEAAAYvgkA8BAggggAACCCCAAAIIIIAAwSGfAQQQQAABBBBAAAEEEEAAAYvgkA8BAggggAACCCCAAAIIIIAAwSGfAQQQQAABBBBAAAEEEEAAARGY83sO3VrnrNOpukOuVbbYlDrNYnZIHXVqjK5G9MBpBBBAAAEEEEAAAQQQQODOCsw0OPzqq6+++eabFMv1UnNUHJjSMq04W2p2Os3SqKgxrXmk3ISgKlKVn8n6nOY0InOa8hu3plZXM4G4W+2v1KzdOzHlQekOAQQQQAABBBBAAAEE5kTg81nO49mzZ67r/s///M+///3v8cZtFXOt8Wom1FrNLFnWpX/iGl1JdHRUsP2OJv0dncakrWdUXyLDitPez5ValkTp0dV2a/ldq3lUbpbe5avnM5oQwyCAAAIIIIAAAggggMBsBWaaOfziiy9++eWXzc3Nra2/jLfM6F7QIH1Xc3WaK5rB85JdZ83SunSuox35vVQ4OuuorFe4K30sO1GjTdSUEodYzajIsH2Qy23Iz27jwlIRVDiFGHrr92mycAPTkI7MTFSazkzVG7Q/H70uvx+vjppc8Or3oJZm5twsuipTmtBtvDzoJjjIFvccq9c49ANxiRJ3G73gtGV1a/W2ZReeD9vfG6rOIQIIIIAAAggggAACCCycwEyDQ6Pz8uXL1dW1sePDgNStBQktp1xxgnJz8PSFXzR2DDPYZOgQzp7Zodqtlqrd8+NTyUkube6oQNTK7mxK+NiuV61i059GbH7+W4nrysHc7cJRaLdmMJ+lwotm0I9d+C66MzbSg9+tJaFbpSCZUvWKNEkrN1X1v+5zyYvK7E1W8Lyal/xh/NU6lGhRCPR64yd5jwACCCCAAAIIIIAAAgsvcAvBoZhJfOi6f/vyyy8n8HO3VEzVa+yq9N1BO9bStk53g/LMStZqFTf2VaXLhpQXB4MdCaFME5MiU02stCF0YOQlIf278rrHbyW1Zm/uSLvszlMVG560LJ1jVHPUOUYZNj4NM4RJQuqR7RU/3LIv6tLKTMde6u3LcsybpcxqaLXhHqR+f2mS7lOJTb1qP2pV7dLKgz7dbZHtXbwPChIPuh/VejNriScpRAABBBBAAAEEEEAAgUUXuJ3g0HX/+vPPP//+++/j82VXMlK5d3rcVW1aJ7HosPdWnxgoHzKA1+T8gwQ9+pU+hCTTTNCl6jkV/dQWvdNSoqVVa31nU1J2Kja0Wm9kXpIPVNs7kx6gaoawnLKqoBOh/XDLhGc6BvN6s/pzMzOUf00PerCgTB/40d37i+A2y6Hl0dZW76OGjZXyFgEEEEAAAQQQQAABBO6LwC0EhxIZ/vHHf1+/fn0FYz+U0smuK7Qfo0nCEG5VNn9KDlDlA3VizqT7dCTqbJfMntI3Ojspj73x6qgYMbRnNDxykFpUHfZTf+EqI46d7YG7/1SYKi8TqVq9D/6TY9LKYyPYT6byVNdYr7xFAAEEEEAAAQQQQACBRRGYaXD4559/fvvt9m+//Sc9MnQq+pEqg5k3s43Ty7l19mw/3TcKOnggzaiK8tQVvVM0cQjJFppnvXT0LYVe6GXyhJuyp/TSe5iLeYpMwm2H3jS6VXmwi59aVCsd+hWOoSnr78NQD7AxPfiTNM/aMfUMnbkvM5xZTCsPetdBrhdDBoUDB9knsnW2d/Fu4AQFCCCAAAIIIIAAAgggcBcEZhocnpyc/PDDP05PT68iJ1+ooLN20rbXqI/ThXer4PiDpQ3x/iIcirb3N/xsnwqrbHvJ8naoRkeS/KCuF51Gq2huJIzWneRdSg+9RsPbaiu3WYaeKJNWHhrSS4EOJCNDVcx9lZenx35CMnyOYwQQQAABBBBAAAEEEFh8gc/W1r5evFVIgk5l58z38t3M9McbQhJ6R4UlCQNv8wsAzdcwqknUIvcNppUngJnvNhziqR+RKs/R8cPihD4oQgABBBBAAAEEEEAAgYUSePx4+dOnX4Mpfx4czf1B/CscQt/LN625TzqEucHvDuTT5Ik76nvuK52qlQtlHT1XzeInQqdlTT8IIIAAAggggAACCCAwVwILFBxG3EJ7OyPlU3wzfAj/2+0lf1mvRhJ2U5zCLLtST2StJg8oT9lJ+i6Q5MqUIoAAAggggAACCCCAwEIKLOa20jmg9oLDwc2cczA3poAAAggggAACCCCAAAIIjBSIbSslOBwpRgUEEEAAAQQQQAABBBBA4A4KxILDmT6t9A5ysiQEEEAAAQQQQAABBBBA4E4IEBzeicvIIhBAAAEEEEAAAQQQQACB6wkQHF7Pj9YIIIAAAggggAACCCCAwJ0QIDi8E5eRRSCAAAIIIIAAAggggAAC1xMgOLyeH60RQAABBBBAAAEEEEAAgTshQHB4Jy4ji0AAAQQQQAABBBBAAAEEricw58GhW+ucdTpVd8gis8Wm1GkWs0PqqFNjdDWih/k4Pe5652O2zAIBBBBAAAEEEEAAAQQWRGCmweFXX331zTffpMisl5qj4sCUlmnF2VKz02mWRkWNac0j5SYkU5Gq/EzW5zSnEZnTWG/cmppzzYTXbjU+//C6JMA2b73aY/VPJQQQQAABBBBAAAEEELgbAjMNDp89e/b999+nx4eDpK1ibiOXK7UGz4xRsppZCtW6RlcSMh0V7FBfEx1GpzFR0+tWlsiw4rT3cxvFlo69K060R7em1qUq7Lctyy682DnO7zZ6TrlZWo/W5B0CCCCAAAIIIIAAAgjccYGZBodffPHFL7/8srm5ubX1l/Fco3tBgzRXzdUJsWgGz0uLnZnARsdFMshS4eiso1Jh4a70sSTKok3UlBKHWM2oyLB9kFOR6sZu48KyTJ4zmEDord+nydcNTEM6MjNRCT0vBjOD9ueju/X7SY3TRlbIFvccq9c49ENrCQIl8lOr9F7ulgSLpkLrUJ2xN3ey3Vq9LXHi82Fbef0O+I0AAggggAACCCCAAAJ3RmCmwaFRe/ny5erq2tjxYUBt0lz6rVOO58Cspy/8orEDm8EmQ4dw9swO1W61VO2eH59eSuS5uaMzbNmdTQkf2/WqVWz60wjmHT2QyLAc5O/swlFoC2cwT5LtlAAAIABJREFUn6XCi2bQj134LmlnbFA5NZBzn6usYL16ridwXs3HE7DZlYyc6n3QFbofVdhoZ1YtSweKslqSh9FLxzsEEEAAAQQQQAABBO60wC0Eh+Ip8aHr/u3LL7+cwFanuSTPtavSdweyCzLysq3T3aA8s5K1WkW9VdK6bEh50U+ehdt4TUwyTTWx0oYwaTWThPTv3+sev/VSbZJu3HmqYsOTlqVzjGqOOscow8anYYYwSUg9sr3ix2D2RV1amenYS719WY55s6QitthrYL2x87KYbZUWvHg/cGJ0gQ4U7cza6JrUQAABBBBAAAEEEEAAgbsicDvBoev+9eeff/7999/HZ/TSXKfHXdWmdRKLDntv9YmB8iEDeE3OP6iUmXqlDyFpNxNqqmpORT/fRW+/1Km29Z1NublRxYZW643MS/KB6rkvSQ9QNUNYTllV0Pcx9mMwE8iZDJ7pzerPTQ0cfo253t5HzRVuOfT4asHk0C45iQACCCCAAAIIIIAAAgshcAvBoUSGf/zx39evX18ByA+ldFrsCu3HaJIwhFuVzZ+SA1T5QPXkFsuk+3Qk6myXzJ7SNzo7qR97o+uoGDG0ZzQ8cpBaVB0mZjXDta9zbD8Z8qzW7ge5edJbi5V9ou6rnDSYvM7caIsAAggggAACCCCAAALzJDDT4PDPP//89tvt3377T3pk6FS8r4uIZ97MNk4v59bZs/103yjM4IE0oypa1pAhJFuocn3yo28p9O7TM3nCTdlTeuk99sU8JCbhtkNvGt2qPO3FTy2qDod+hWNoyvr7MPwH2ITK0w916KrvIUyt4+U51T2N+gZFL19pAsXexbvUhpxAAAEEEEAAAQQQQACBOycw0+Dw5OTkhx/+cXp6ehXGbi1vMnLqAZv1cbrwbhUcf7C0Id5fhEPR9r58M4TpVAVgtr1keZs8oyNJflDXi06jVTQ3Ekbr3sQ7L7E57KmjraIiVYGrimfbB2Zd+hbKy9Nj8ySbm5gafSKAAAIIIIAAAggggMDcCXy2tvb13E1q5IQkQaejmf2rfgXiyBGs8YaQhN5RYUnCwLz3UNDRHc+whnzBhtzXKN9gEX9O6dA56OepyiNz/Ah4aGVOIoAAAggggAACCCCAwKIKPH68/OnTr8HsPw+O5v4g8iUQMtvQN/hNa+6TDmEeRTO3STZ5js6u1TyqdKrWuPGhFvBzntNipR8EEEAAAQQQQAABBBCYf4EFCg4jmKG9nZHyKb4ZPoT/7fb66w0neyToFOc4siv1nNXqyFr9CvJAnaSv/ehX4AgBBBBAAAEEEEAAAQTupsACBYcziFsmH4Ik293874JVIYAAAggggAACCCBw7wQW857De3eZWDACCCCAAAIIIIAAAgggMGWB2D2HM31a6ZSXQncIIIAAAggggAACCCCAAAJTEiA4nBIk3SCAAAIIIIAAAggggAACiyxAcLjIV4+5I4AAAggggAACCCCAAAJTEiA4nBIk3SCAAAIIIIAAAggggAACiyxAcLjIV4+5I4AAAggggAACCCCAAAJTEiA4nBIk3SCAAAIIIIAAAggggAACiyxAcHgLV8+tnXU6zVJ2+NBurSPVqm5yrdDZbLEpNZvFgf4G6ni9hcqTO6cUAQQQQAABBBBAAAEE7p3ATIPDr7766ptvvkkxNhGLhEPeT7O0nlJz7oqzpeYYwd7gtNdLTbXYWjj+c6tKIFI02HCaJVed/DTnoKNlcYh+Bvxw15z1PhgiY4LhGRJNc6n0hQACCCCAAAIIIIDAvArMNDh89uzZ999/nx4fRpDswtGi/P2/mlmKTH3cN+fVelvqOtv96NDddqSkfdKyrFYxt5HLleQo6TX8rGmRVidSftXJJ03qSmUS+1Wc9n5uo6iWetnYlVXvNnqWZRdemP9BcNHYVRQHGqtcW63l5bxTXqD/fXAlGBohgAACCCCAAAIIIDBTgZkGh1988cUvv/yyubm5tfWXlFWqICGX29htXEoFFTX5aSKdPjJ7LPv5pVB40C/0026hkmBzZrAD0yTozN5O7/jM682v46p8oMrsRcq9gNUk/dR8dGwjk10qHAUZv/7Q/RmabmNZwdYbHfBs+dFhKDaUjtXo/rZSf5IyHz2F6Fmj6dfxB02qo2r2y6OTL+pMZrDf1awxeOuNoWels7syj+FWzWLc0PQR/jdb3HOsXuNQx8AStearXTnthc12Zk3etKo1VWa1DvWnQh12axJW24Xnvpsq44UAAggggAACCCCAAALXEZhpcGgm+vLly9XVtfT4MGk59p6EEPolgU3ZO1S5JZNdjBQOVpMwsxJEWer00xcV08dS4UWz6R1Lb9/17wO0C5WClw+MlOveh/4TmUx/hkcF2zRzyv6A8r51Es4duls6b/gmni2UGCzUJnl0GcmvM+GEg/4+Hp9KTL60uaM39GZ3NmXG7bqO1kydyNKCZgKXbJVW3m9puc+FRcY4D5WpQxMl9y7eBeWy/fVIrkgQRx5KctHZW5y9x8FCOEAAAQQQQAABBBBAYD4FbiE4FAiJD133b19++eUAikRxKiulwgDZYWjySVLJtk7VbsNSywufDiS76O09XFm3woVSLtsTTUnPbEfc2NcBWD+QsC/qfnPLXurt+/sYraXMajAjL4ep2/rxUnAydNAqmv71fshg6HbSDL356O2Rfg/h6DCcN/TP69+rGQnTVGudVtXbLyPn9ZtxJxxuGZt89/it2s65uSPPtsnuPFWxodrg6r8Gnb0zaUOnlfsdmhiwd/E+KNAHXj6z1/i7CRp1flJ/JCSONFlESR5+VFPVqcVoa94hgAACCCCAAAIIIIDAVQRuJzh03b/+/PPPv//+e/qUJdYyOwx1FT9/lV3JqPdOWW341Lk4CQ9MYTiMMSW902O9HdF6f6E2qfZfJhrR0YUf/px/kFAj/PIjlnjbcJ2k4yEz9Ofz7iI8Vn9nqY4N/cxYpG9dR1KDatX+Y1oiFeTNVScc6Udv15SQa9Va39mU+DyMag06e23Thk4rjwwpM/9oLpMuluSk3IKoQ+F8EAfW8joqlkDdqfi7fGOd8BYBBBBAAAEEEEAAAQSuJ3ALwaFEhn/88d/Xr18nzdzLNeW8e8+SqoRyaCqT5ufRwo916X64kJZBWsk8c6X3Ib53Mbl3U6oCJHmZGMnqt7Wf6G+MWFO5vPRXkOULz9CfT6ytnzusqT2lfgAZ61o/QkYnMYOttLEaOqKTsoEJx+uNeK9n42yXzJ7SgQ2u0cfneH2lWqUYxqbgkUqp3OWo9gwrvSAyDFU2Uj5j6ASHCCCAAAIIIIAAAgggcG2BmQaHf/7557ffbv/2239SIsPRq+nq53t6OTT/eS2m0EsnSqE8KMVLx+kEo8lERZNgo0dStynKBldzp6BOoJlMoxpbyvv3PfpdeQ+kSZ6h3q7pzzDeVh60IqlEx5Gw6PL0OCmCNU+a8W8p9EeM/R6YcOz8sLehp+mYLOWm7Cn1tvXq77pQ+boEZ6/PtKHTyoOp6HDPiy3lRkN1A6K8+tdXPXvHrXnJUremBbwbEbNP1Fbb0E2JQaccIIAAAggggAACCCCAwBUEZhocnpyc/PDDP05PT68wUb9Jq6i/5sB/a34PFkqqLXxrnyQk074TItpT8K7XaKg7FeUlG1xN21bR5O5kt+V+ZBImujO11VdQRE7q4m4t77ftNQ5ULBh+dY9PTUnvrbcRNnw2dixpNT9ZGjmTMOHI+bQ30clLLRWw2bY8+mVwMklLkxZpQ6eVh6biJSqHP3U0HJC3D/L6RkR9S2RKLB3qn0MEEEAAAQQQQAABBBAYU+CztbWvx6x6X6rJ408kXygxWNLOxvuAYJ4LqgAGHiIaX36aVVp5vL28l62kwj1p9K6fmypP/UmMkxNGoQgBBBBAAAEEEEAAAQTiAo8fL3/69GtQOtPMYTAqB3MsYO5anFlS7ryqv9I++l0jw3l0ZJiWQR3elLMIIIAAAggggAACCCCQIvB5SjnF91HA+w4JWbr/eNiZKEh8uFGdYCTZMxz6go0JGlIVAQQQQAABBBBAAAEEUgXYVppKcw9PBF8weG+31N7Di86SEUAAAQQQQAABBO6tQGxbKcHhvf0ksHAEEEAAAQQQQAABBBC41wKx4JB7Du/1p4HFI4AAAggggAACCCCAAAJGgOCQTwICCCCAAAIIIIAAAggggIBFcMiHAAEEEEAAAQQQQAABBBBAgOCQzwACCCCAAAIIIIAAAggggIBFcMiHAAEEEEAAAQQQQAABBBBAgOCQzwACCCCAAAIIIIAAAggggIAILMQ9h26tc9bpVF2uGAIIIIAAAggggAACCCCAwM0ITDc4NFGcBHLeT7O0frVpZ0vNTqdZyl6t9QSt5GvfZbY1HXeaYzN5U2K51WAtnWYxmy02ZWneuQlGoSoCCCCAAAIIIIAAAgggMOcCVw8OHz16NHJtduHoapHUamYp1HmrmNvI5UqtUNFUDiUarDjt/dxGsWVJOFpxLKt9kFNj7R6+lxHcmi6SCruNS8suvNg5zu82ek75ykHvVKZNJwgggAACCCCAAAIIIIDA1AWuGBwuLy//9NO/Umajwi0Jsfbb6ry9sm5FEm7rpWawR1RnGiUj5yfoTNClYzZpulQ4Mmm60LZS01W/ic4uRpvrWfVzmKmBXLa451i9xqGOOd3nhSV5sythonqdd7uWlX1iy2H7jRR1j9/2ZC2ZNatbq7clTnzOHlcNxT8IIIAAAggggAACCCBwRwSuEhxKZFivv3rw4MFQg/UVFVpZvQ/nQ6vJyacvVIJOvcYOuoImS4UXTZ3yM82/0ztRJTIsez2qPpOzlxIO2la7XtXT03Fg7/Tjjgpc/Y2jOg60nHLNXS+9kMqXJpBsHTZ6lrN31R2zeqH8gwACCCCAAAIIIIAAAgjMl8DEwaFEhj/+WH/48GH6OpyKuufwSMIp2aXppeLSa1u2dbqrdnJKyGVZmZWs1SqarONlQ8oT29sXdUlOmhb2Um8/aL6UWZXdoFsqMjQbRHUdlb2Mv9xtqdS7eG/KVzMyWbtQVnOWl1M2Nxa2TlT206notfTeHks6UV7dj14WUb/jHwQQQAABBBBAAAEEEEDgDghMFhyayHBUzjBgae8nhnbBeXPgBV3nH1RwON7LBHU6SJMo8ERtBe03z65kVC8S4EmMqsM6tR008dX7aMI976R3w+GBjgi3XNmtKinNIMhMS0Em9kwhAggggAACCCCAAAIIILBQAhMEh2NHhuqeQ/UEF0m5yc2BAYf9RB+vqSTdzb/k/kH9aBl192Ny+lHm4E3Jst5fDEamKzrINKGnyRZazha3Gt78pWMEBBBAAAEEEEAAAQQQuAWBCYLDra2tRuOfh4cvg58h8+1W8+qBNPKET7k3z6T4JPOmtpv27wYc0lyfCh5IM6pi9Hy3Ko+MUbca+t9CkfgFiXrHqK12oapX9/hUokO5kTArjy2V59So59BUP1zIb2dPxbdeoclYmhsUL96phrwQQAABBBBAAAEEEEAAgTsh8Pn4q3j16tX4laVmq3iwLaGgPA/mw0Zxf0tt0ZSYa3/3Yk/v9Rzalzz0Zc/xbgAcWjHxZKu4+6Q5ahCJDiuOs+1aLb0rtfr3xuZRQZ6PWpAuvceWtnZXpBuJMlWZmnu+ph5iuvNUPZzmeOSDdnQj/kEAAQQQQAABBBBAAAEEFkHgs7W1rxdhnjcxR/lSDYkgZRPsRN+gqB+FKjcijnM75U3Mmj4RQAABBBBAAAEEEEAAgWkIPH68/OnTr0FPE2wrDdrclYPzqv5K+0oncd9p4ip1ZNj/OsTEOhQigAACCCCAAAIIIIAAAosncJ8zh4t3tZgxAggggAACCCCAAAIIIDAtATKH05KkHwQQQAABBBBAAAEEEEDg7gjc522ld+cqshIEEEAAAQQQQAABBBBA4JoCBIfXBKQ5AggggAACCCCAAAIIIHAXBAgO78JVZA0IIIAAAggggAACCCCAwDUFCA6vCUhzBBBAAAEEEEAAAQQQQOAuCBAc3oWryBoQQAABBBBAAAEEEEAAgWsKEBxeE5DmCCCAAAIIIIAAAggggMBdECA4vAtXkTUggAACCCCAAAIIIIAAAtcUWLjg0K11zjqdqnvNddMcAQQQQAABBBBAAAEEEEAgJPB56PimDyWuKzuhQdr7G8VW6P1tHLq1s4pjyUxOttWB92of5PTMsqXmUWGpX3j4RN7b/lm/Nr8RQAABBBBAAAEEEEAAgYUXuKnM4aNHj27GplXMbeRypakElToybO/ndIx60dhVPR+0Zd5OuSapyWzxhUSGPVW+L6VSuFrL7zZ6TrlZWr+Z1dErAggggAACCCCAAAIIIHA7AjcSHC4vL//0079SFqSCsZz+0ck5vU20Wcy61Y7aL3rWj7uyxaYu6dRcieI6nWYpK12Gt5Wmt/WqRTuMTShb3HMk9Ds0cWarWuuqCq3DxqWpmN15altWu67KpbQn4eG2a3Vr9bZlF56zrzXGyVsEEEAAAQQQQAABBBBYaIHpB4cSGdbrrx48eJDi4lRMyOcFe6bW0xf+nk4/7nJrsoHTnHTK/snELpPahvav2oUjlQYceLnPpf92vXoePuPtIw1CRsuyV0JJQvuJxKc6UHT2SB6G4ThGAAEEEEAAAQQQQACBBReYcnAokeGPP9YfPnw4GYttne5KOlG2bEq7zIpEYO6WugFQb+n0tnqm9ZjWVu4MlPyk7jIS4Hn9uNsyQO/ifdCtTlSaOwxNtrB7/FamI7GlSmkGkarU735U5Zm1oCkHCCCAAAIIIIAAAggggMCiC0wzODSRYXrO0FgF20rzVb2PU5X23h6r4/MPKjhUr+xKRv7tnepiq3WibgRMeaW0lVsEg6AuNZDrfQymIPtF83qzq9xe6FT07lZVom9BtC4bu/ogXD9lOhQjgAACCCCAAAIIIIAAAosoMLWnlY4XGU5GpIM62faps3yTNVVJx3x0y2hCB3qbaD8+1DUkEq04jj+0PP9G35Mot0SqROO7hE4oQgABBBBAAAEEEEAAAQQWX2BqweHW1laj8c8xQNQ9hxVdT8dvyS3Uls5CwVbZv7JlXfbUPs7kmoOl3Wq9XSg7sh20YE5KrnLw6aYSA5YdJ7Mqu0RVLbfWfHKYl2fPuDV9g6OOA91S6V1VIkyJDFWhf4Ni9onMhUBxUJ4SBBBAAAEEEEAAAQQQWFyBqQWHr169mqaCbOncz+iQTHKA9dPNshfojTVGq7irv5BwaGWTIZTnj7bM40rVzYX+IO0DnXVcy/TLZGepF2Hqp5heNo4jT7IZOhQnEUAAAQQQQAABBBBAAIF5F/hsbe3reZ+jn7hLSgBeZ+7r6ivu7cS84pBu5fszyo487UZ/EceQepxCAAEEEEAAAQQQQAABBOZZ4PHj5U+ffg1mOLXMYdDjlA50DBbqK/TtEqHSax2eV/O7VvOo0qlaCftOE7vWs5LtsESGiTwUIoAAAggggAACCCCAwMIKzG3mMBIctvc3CMcW9jPGxBFAAAEEEEAAAQQQQGAeBWKZw7kNDufRjjkhgAACCCCAAAIIIIAAAndGIBYcTvN7Du+MEQtBAAEEEEAAAQQQQAABBO6bAMHhfbvirBcBBBBAAAEEEEAAAQQQSBAgOExAoQgBBBBAAAEEEEAAAQQQuG8CBIf37YqzXgQQQAABBBBAAAEEEEAgQYDgMAGFIgQQQAABBBBAAAEEEEDgvgkQHN63K856EUAAAQQQQAABBBBAAIEEAYLDBBSKEEAAAQQQQAABBBBAAIH7JjD3wWG22OycdTpV975dGdaLAAIIIIAAAggggAACCMxQYN6CQ7emQkHvp1lanyFF6lBuTc2nZsJTt6qn1yxl/fpe+Krn3CxmzVuvtl+H3wgggAACCCCAAAIIIIDAfAvcTnD46NGjBBYVd5WdhBO3WSSRYcVp7+c2iq31UvOsU4lN0K0dFWxLVdhvW5ZdeLFznN9t9JzynES2t2nH2AgggAACCCCAAAIIILA4ArcQHC4vL//0078GiNyajrt6jd1cbkP/HJzGK+nwzMsrhnJ3XjZvML8XKrH6Ocl+2DbYMDZitrjnWL3GYcsrlyBQIr9QJXdLgkVToXWoztibO9lurd6WOPE5W2FDUhwigAACCCCAAAIIIIDAXAvMOjiUyLBef/XgwYO4ihdl7ear5/6pVrV/bMrWMrZ/0loqHOkbEWUbZyybN1iiIsN+TtIuHKldnwnVgs69A/e5ygrWvWmcV/MlP0r0KmRXMnLU+6Dn3P2owkY7s2pZOlB09uZjW6w3V34hgAACCCCAAAIIIIAAAukCn6efmv4ZiQx//LGeEBlKpBaOslJHbhVzXnSmd3tmVuTGv1UVMEq+sR9VuoMlKr9ntQ9yxZaKCWUj6IrczThQLT6uu63Sghfv4+VjvNeBopNZs6wg1h2jFVUQQAABBBBAAAEEEEAAgVsSmF3mcEhkGKxdx2zBu8GD/rbSfrKw9Ubf63eknhMjz4ORRgMlJvK0nLKqo24RlPTe2mC1wfFUSe9jN/lESunVgsmUzihGAAEEEEAAAQQQQAABBGYjMKPgcGRk2D1+K3syvQ2f3tLdUnRbZrb0XcG+bOyqOxLV01+8l6QTN3Lmvdd+sERVDd3NuKFSiFZyNb9b/7f9JHguqV/U/939cCFvvJg2+0Rtep00mOx3xhECCCCAAAIIIIAAAgggcGsCM9pWurW11Wj8c9gq1UNcCpIPdCryRFCvooRz1XgbudXwrBAulIfK9NOI+sRASbcqfZedwlHHaynPlSm1BqqFe9XHrZN22XHUPYSpyUPJUlYcp/Bd6Tj/Qd2gaLVP9MZXHSj2Lt4N9EkBAggggAACCCCAAAIIIDCPAjMKDl+9ejVy9a3iRixg0w962QkaejGevO81Gr1CQd1HGH1JNCkpQXerX2pKLKu4+0Tdatg/ET3yq0VLLYkOJfTbdq1W7EE0/Xqt4v6WRKcSsqqy9oFKScotlDtPbeuyccwNh0qDFwIIIIAAAggggAACCMy/wGdra1/P/yxvb4Zyl6PElDrTOMEk9MNRzfNvJmhFVQQQQAABBBBAAAEEEEBgdgKPHy9/+vRrMN6M7jkMxlu0A/n6CvWV9pWO/tqMsWavI8OUVORYHVAJAQQQQAABBBBAAAEEEJi5AJnDmZMzIAIIIIAAAggggAACCCAwBwJkDufgIjAFBBBAAAEEEEAAAQQQQGDOBNhWOmcXhOkggAACCCCAAAIIIIAAArchQHB4G+qMiQACCCCAAAIIIIAAAgjMmQDB4ZxdEKaDAAIIIIAAAggggAACCNyGAMHhbagzJgIIIIAAAggggAACCCAwZwIEh3N2QZgOAggggAACCCCAAAIIIHAbAgSHt6HOmAgggAACCCCAAAIIIIDAnAkQHM7ZBWE6CCCAAAIIIIAAAggggMBtCNyr4NCtdc46nap7G9CMiQACCCCAAAIIIIAAAgjMs8Dn8zy50Nwkris7offt/Y1iK/T+Ng7d2lnFsWQmhyvNo8KSN4X2Qe7wiby35eDWp3gbLIyJAAIIIIAAAggggAACiygwj5nDR48e3Qxlq5jbyOVKUwkqdWTY3s9tFN8XX0hk2Gvs5jb225bllGurtfxuo+eUm6X1m1kIvSKAAAIIIIAAAggggAACUxaYu+BweXn5p5/+lbJKFYzl9I/Oyeltos1i1q121H7Rs34wli02dUmn5koU1+k0S1npMrytNL2tVy3aYWxC2eKeI/HgocSZ2Z2ntmW167WuZbUOGz0JD7ddq1urty278JwtrDE53iKAAAIIIIAAAggggMB8CsxXcCiRYb3+6sGDBylYTsWEfF6wZ2o9fSGbO/XLD8bcmuzqNEVO2T9p3sf+TWob2r9qF45qSeGd+1z6b9er50F39kooSWg/kVBUB4rOHsnDwIgDBBBAAAEEEEAAAQQQmGOBOQoOJTL88cf6w4cPJ+OyrdNdSSfKPk5pl1mRsMzdUsGi3ueZyx3ITs/UV1pbuV1Q8pO6y0jU53XkbssAvYv3+m33+K2MLGGkyl4GQamc6n5U5Zm11NE5gQACCCCAAAIIIIAAAgjMjcC8BIcmMkzPGRqwYFtpviqbOM2r9/ZYHZ9/UMGhemVXMvJv71QXW62TIdFhSlu5bzCI9FKju95HbwrdWt4LQS8buzoWDU7p+fAPAggggAACCCCAAAIIIDD/AnPxtNLxIsPJMHVQJ9s+dZZvsqYq6ZgPbRlNbq33jvohqjzqRj/mRu5+VDnFd8lNKEUAAQQQQAABBBBAAAEE5lVgLoLDra2tRuOfYxCpew4rup6O35JbqH2ehYKtsn9ly7rsqc2dyTUHS7vVertQdmSPaMGclFzl4NNNJRtZdpzMqmwdVbXcUuldVYJJiQzVDY7+vYjZJzIsgeIgMiUIIIAAAggggAACCCAwhwJzERy+evVqmjSyz3M/o+M0yQHWTzfLXqA31hit4q7+lsKhlSU6rDjqoaQtnS/M9INJ2VnqBZP6KaaXjeP+Q2uGdslJBBBAAAEEEEAAAQQQQOA2BT5bW/v6Nse/6bH9bF5SAvA6Y6+X9Pfcp3crX5VRduTBNvo7N64zEm0RQAABBBBAAAEEEEAAgZsQePx4+dOnX4Oe5yJzGMxmSgc6MAv1Zb6QMFRw/cPzan7Xah5VOlUrYd+pnoDsfCUyvL40PSCAAAIIIIAAAggggMBMBO5k5jASHLb3N4jRZvJZYhAEEEAAAQQQQAABBBBYJIFY5vBOBoeLdD2YKwIIIIAAAggggAACCCBwKwKx4HBevufwViwYFAEEEEAAAQQQQAABBBBAwAgQHPJJQAABBBBAAAEEEEAAAQQQsAgO+RAggAACCCCAAAIIIIAAAggQHPIZQAABBBBAAAEEEEAAAQQQsAgO+RAggAACCCCAAAIIIIAAAggQHPIZQAABBBBAAAEEEEBV3DEzAAAgAElEQVQAAQQQEAHuOeRjgAACCCCAAAIIIIAAAgggQHCY9hnIFpuds06n6oYrmMJmMRsu5BgBBBBAAAEEEEAAAQQQWHyBhckcfvXVV998800K+HqpORDIpVSdZbFbk1md1VwrW2rKgfej3uvIUw54IYAAAggggAACCCCAAALzIbAwweGzZ8++//779PhwPjhDs5DIsOK093MbxffFF4Ulq9fYzW3sty3LKddWa/ndRs8pN0vroRYcIoAAAggggAACCCCAAAK3JrAwweEXX3zxyy+/bG5ubm39ZWwtt+bn60wYFqTyVA+RPaLxmiOGcKsmDZga3WWLe47Eg4ctGWfnqW1Z7Xqta1mtw0ZPwsNt1+rW6m3LLjwneziCmtMIIIAAAggggAACCCAwE4GFCQ6NxsuXL1dX18aLDyXeKzs+ol04kl2crRPJ3Fn2is7XrWYkZuudHnethJp+u8TfT19UvI7Tojv3ecGWeLB6HrT3BjXv7Sdy16IOFJ09koeBEQcIIIAAAggggAACCCBwewILFhwKlMSHrvu3L7/8cgSau6UCuPZBLreRkz2cJiZsvZHo0N7ckdjM3Zbzl6fH51ZizSG929bp7kYud6ACTSuzkvB0Gt137+K97qR7/FaNXjhSycYjCRr9V/ejKs+s+e/5jQACCCCAAAIIIIAAAgjcmsDiBYeu+9eff/75999/H26WXcmoCk45CMl0GPbuQgdkq9b6isobvpW8YUrN9O51K8n86TTkkGofZR+penVreS+SvGzs6pCy558yFfgXAQQQQAABBBBAAAEEELhtgc9vewKTjS+R4R9//Pf169djNpOnwORDezul1fHpZaHgbJcubNn3ua/uAzSZv3jNbHHMIVKr6b2jXnxotYo5uf1Q8pXVjsSkF+9SW3ECAQQQQAABBBBAAAEEELgNgYXJHP7555/ffrv922//SY8MnYr/+JlOs2hV5YEv/mZOVe59Y6G3yXNTHhLTPtHxWjelZnA5zBdRpD57JqjXP9BJRTuz6pW4JXNjoUSG6mZF/17E7BOVvCRQ7LtxhAACCCCAAAIIIIAAArcmsDDB4cnJyQ8//OP09HRsqlZR32oYr989Pu1Ztr1ktd/o2FDOp9SMt5zgvY4O1UNJzStjbjhUkaHsLC2ZcfVTTPVNjxN0TFUEEEAAAQQQQAABBBBA4EYEPltb+/pGOr7vna6XmvLwGfmeQy8UHPDQj0iV5+UU/RB1oAYFCCCAAAIIIIAAAggggMDNCTx+vPzp069B/wuTOQxmvCAH51X9PfcVfztrdNo6MpTbHIkMoy68QwABBBBAAAEEEEAAgdsSIHN4W/KMiwACCCCAAAIIIIAAAgjcpgCZw9vUZ2wEEEAAAQQQQAABBBBAYD4F2FY6n9eFWSGAAAIIIIAAAggggAACMxUgOJwpN4MhgAACCCCAAAIIIIAAAvMpQHA4n9eFWSGAAAIIIIAAAggggAACMxUgOJwpN4MhgAACCCCAAAIIIIAAAvMpQHA4n9eFWSGAAAIIIIAAAggggAACMxUgOJwpN4MhgAACCCCAAAIIIIAAAvMpQHA4n9eFWSGAAAIIIIAAAggggAACMxUgOJwp900Nli02O2edmntT/dMvAggggAACCCCAAAII3HWBxQoO3ZqEQMFPs5id/uWJDtE5a5bWpz/Irfbo1pShF0i6Ve3ZLAklEeatXhcGRwABBBBAAAEEEEDgdgXmMTh89OhRAooKY8pOwgmKJhCQyLDitPdzG8XWeql51qmERLu1/G6j55TvXjw8ARBVEUAAAQQQQAABBBC4rwJzFxwuLy//9NO/Bi6HW9NhTHt/I5czPxLHmFo6yPHSiToDJsUmCSapxXBmzDsOJwP7ecJoRHTZ2PUGylfPg5SazrlVXWuKI+oJ+CnQcE7PH+v/Z+/9Qhu50rz/kyFzM90w2czNpoNLvW27ZywWQgY5nYFy03YutEOIAt6h90K08eYHJhcJSH312+62LuzuzF0kSL8weNm0o0YD0+yKiYbZQSzjDi3BbGIxITfyptvuRTIhEDb9/vpm3h8MDO/znFOn/pck27ItWd+iaVWdOn+e86lS+Xzrec4RdcYxstGg1uWmvXyubOoE5ZbOVV2nlapLLZqiXVqrWKmkEm2MMqlZWK8LI72E+FQPNxyAAAiAAAiAAAiAAAiAwAgQGCxxSMpwff3OqVOn/ORTs+ThapcWMlrWCLGVzxSanG8yZtjZx9JFLZ847eJNyzM2lr5ZLmsvmZG+xVGULLocV6SRLnaZsmcskrKSWx9brGzUhTAuJqU9c7J+Y5wCWafGqVPt1rbXSCHMnK0PyRTHJGUY9SnPvSRS8wqOTpefqaW0IerrJHd528rPZx2cMon+q6yR6DYXT1wwre4fPkEABEAABEAABEAABEAABMIJDJA4JGX40Ufrp0+fDloaH49RYnuHVU08W7anHUo5V8lYvsTpFRJaIjZuz0Q0Wut0SvnGjLE2ex3VwVhsgnQUC05RX2VXpEyWqoySaCORaU1udBSjIWrsTiRB1c8Wt1u71BzbEz9niN12WxixSaV427VqUxlJYk/2UXbQpdwck5TZs9K/ulu6EaIMqcMsPllwdtyaj8kjK23omA0nQQAEQAAEQAAEQAAEQAAEThaBZwekO0oZhvgMXfZJ8aa8Xq5UDvIskkcsZFNCSKkdUd9gN9nWDksfzqsEpzCXaSqjVZZVWfRGLjfpqSS3Xh9bbK49aKfTsmsxo/2gxAfn4nGycbdW3YonpSomlSjtYiVpjjkmOibJNNOUcte208no7LUfW51wkrAHAiAAAiAAAiAAAiAAAiAAAmIgPIddlWGz+oA1nYz8bObnydcnfWh8/eLZW2nDmiJoJ/Z+Ydknpx2PCSdo1Zlz6KTpSvvcYrNaI2/hTDI7Z5KrME9hphRlmqRQ2dZOUzR3WtSs7cebiLEyVB5UbY7rs17ieZjmsuPtdJ20dkl5BhORAgIgAAIgAAIgAAIgAAIgMPIEBsJzODs7Wyr9stO14IVS0jSbzszRApvBjBwFmg4md0xp5qnKZTNdbFglaXWWkDl4EXX0scWtam03nb44Q6pvY0tst2jK3wwd1NfZ01m5X8+RQ9Dl3lQu0HCF9zh/ozRTTJu5fKoS7AvNb1w2TY5g7eQ85OhWCj59FNFxJIMACIAACIAACIAACIAACJxMAgPhObxz586adwvCrmSmEz7PoFx2kzWeyt0ulay9YOnQlErGu1RnaKZgYt9blH7RMcOQga/KkWiMqShYUoeZxKqrW90UbLNwo0STGL3r1ug+yNVvzLmOS5HGkxdVRKsuhE8QAAEQAAEQAAEQAAEQAIGRIPDM5OT5kegoOskE1GzJDgpTruBKi/QEo2kBEARAAARAAARAAARAAARA4GQROHPm7JMn39h9GgjPoW0Ndg6ZAP18BXlLw/2K1m970CxMKMNDvgyoHgRAAARAAARAAARAAAQGkAA8hwN4UWASCIAACIAACIAACIAACIAACBw6AXgODx0xGgABEAABEAABEAABEAABEACBoSOAsNKhu2QwGARAAARAAARAAARAAARAAAT6TwDisP9MUSMIgAAIgAAIgAAIgAAIgAAIDB0BiMOhu2QwGARAAARAAARAAARAAARAAAT6TwDisP9MUSMIgAAIgAAIgAAIgAAIgAAIDB0BiMOhu2QwGARAAARAAARAAARAAARAAAT6TwDisP9MUSMIgAAIgAAIgAAIgAAIgAAIDB0BiMOhu2QwGARAAARAAARAAARAAARAAAT6TwDiMMA0nik3NhuNfCpwJlWg9HI2Hjix/4RUIaKt/VdJJVUXypl+Wnogg1AYBEAABEAABEAABEAABEBg0AmcBHEoNdtmOTtlwU7lGx7FNZUth4u9A10cS0NSzV0UYzxbdktK3+GBbOhTYQWwoNSwRU9qYNVH60SfGkM1IAACIAACIAACIAACIAACA0lg+MThc8895yO53dqlFCM2qdJTc6bciY0rx1k8OWMIUb9f8RU7yCGppmKaau1lm4iNubN5DyuZxHQike2nbe7GetgnZZgz6yuJ6UxFquicoidLNgvzC6W2uewI7x4qRBYQAAEQAAEQAAEQAAEQAIFhJDBk4vDs2bMff/xrH+hm9UGbkoxzUgxKbdjebYuxmaT0JU7ESMW1W49kKRXGqdx9OnBU+8ekA00n2m3YHkK3A03WKeqrCZZ20wulls7u1K8ElZRedHIsXdxsFFK+QyHcYaVyn2JBLd+dyxfqskEaqUNbdU7yXrqt08ZQ9cqJ6qrKOSf34plFU7RLa1qdkkokOejK1Cys14WRXgoG2boyYRcEQAAEQAAEQAAEQAAEQGDoCQyTOCRluL5+59SpU37qzWqN9IxxMUnqMDVLnq92jeWi8iVKsbhbq25JJbbs8ouZOffEQmORZFJgSxVsD6G57HaqcU5zUc0/bOaz+SYdk7pz6jfSxXDBFmjDm3Dxpm5GS7IIG0gx6pzeGuyjYFX2KWsntUT+z/p6nuDQtpWfD/FhVtZILVJXddSuVRQfIAACIAACIAACIAACIAACJ4rA0IhDUoYffbR++vTpMPxbO6QFxVhsQsTHY0KQFCxs1Em8zabE1Dj7DR9USbxJ3UhusgXp7luhDG7NY4jaQiDC01NklUuoTQomyx9oe+1UZuVOlO43Y3yqkpmWDe2WqPJMxXeoq3N9WmYo952MjI2yQXlEqTeyOxnt+3PqsqpSZusgW+c07Skva2vbkxg4aD62lXbgHBJAAARAAARAAARAAARAAAROCIHhEIdKGYb4DPVVqLAWFMZ4KjlDE/xaO00hJyLGOIHF4WPShlI3klORdSJtaqai3JX/kf9MnXCSfEUetViCqo2cbEr18aGZ46hOVb8wl3mJGulvtKdBWoV6+VA6Vii5ywW8ZquOyooq96nP5J/k5kIXJrWqchUJNUDCCT2DRBAAARAAARAAARAAARAAgdEhMATisKsy5KtlKaVlXiVGrj0jJyKOzSxe5IQNdqs1d3hmoC3Y1MIw7R0VUcl1RG26yCRPXlRbKk9qkNyA7LWTnkFyEqoz7JiUrjz+P8Sdp2vY46e2Qa+2w8XlYjayddaI+4ph5WqsuZq8iw0EQAAEQAAEQAAEQAAEQGBkCTw7+D2fnZ0tlX7ZzU5265lSvCkpKHgiYjptkCPRSmABmTNN9uwt69rkqehfA2SFSXV4ilhFyVvYyOlqyDe5s9WsrNfTyya58tIqnRZ3safw8YI0aYo4teSifejUELXntWG3zSGeMi8tNuOdc0g/klFMj5E6na9GVeZLJ6fismlSNK4IOE1dOePnqEG9oo8rHbsgAAIgAAIgAAIgAAIgAAIniMAQeA7v3Lmz5t3C+G9Va/yDFjThUE+h05GZbZ3ArjbXvEHhFm9hVVIa/ZaDcs2ROiqtOst4brsiTEl9rtDvQFDuSsa70qeq1JqfqFvwHerk6E+PDeu10IykCPflpZQhp+Zcx6VI40nyvqoVfULbRiIIgAAIgAAIgAAIgAAIgMBJIPDM5OT5k9CPEemD5S3sQdb2CoR+25DmR3aoUC7B6vg8e60X+UAABEAABEAABEAABEAABAacwJkzZ588+cY2cgjCSm1bR3XH8wsZBMH1s4QHR0Ir6yyIcpF+1UM4QbB2tbLp/bol7VqwAwIgAAIgAAIgAAIgAAIgMPgE4Dkc/GvkEYc6hHXwzYaFIAACIAACIAACIAACIAACA03A5zmEOBzoqwXjQAAEQAAEQAAEQAAEQAAEQOCQCPjE4RAsSHNIIFAtCIAACIAACIAACIAACIAACICATQDi0EaBHRAAARAAARAAARAAARAAARAYXQIQh6N77dFzEAABEAABEAABEAABEAABELAJQBzaKLADAiAAAiAAAiAAAiAAAiAAAqNLAD9lcYjX/nvf+fMh1n60Vf/pL9892gbRGgiAAAiAAAiAAAiAAAiAwJESgDg8RNx/91f/fYi1H23V5W/PH22DaA0EQAAEQAAEQAAEQAAEQOBICSCs9EhxozEQAAEQAAEQAAEQAAEQAAEQGEwCoy0O45lyo5yNH/mlOX/r7eofXwt1xTmnXn7tw6eXkwHbnAxXLlfvvUTnnZRA5v0n6MqFvRNW13EBDLMFaSAAAiAAAiAAAiAwVARShUY+FbQ4lW+UM/0Zn/Z/qEY2H8fgOUgJKYdDYLTF4d6Y0pdhs8H/XF9j+vZaiSHfk5dWn15bveJu5IWlP1778NYL7qSj3iex9/Sa+ue1rQdDbAKbhZAnWQ8VIAsIgAAIgAAIgAAIDDOBVGGz4RoGxbPkaHCEnO+wHx3F6KsfFMPrYLbl7JQ+aaN2DfWFnRgy1NcFoz9ZnCv5MDSD59EWh83CfGI+34y6olPZsn0haX92IzGdSEyv1M2c9VBIFRZbCzIxsdJKF913Etf5Rb0qXnmDnXvW9nL81fHtX13/+uH1XyR//PuHOtn92eGUyhbM4KREOBvt+pP3rlVvi/e//15S/qu/8fbSy/bJbjv03VgWK0wgkVhoLcrOdgHYrUqcBwEQAAEQAAEQAIGhIlDZqAvjnHbrTSVnxoRxMamPJ2Jj7Vo1cmi5556Gjb7CK/GNWvUIFkO1cFycGs8ums7Z0KE+JS4bpQUe/YYN9Z3S4XupQjHdVoNn1g9+pRBe6LhTR1sc7oH+Vn4+W5H5XQ+FSma+YH3/K/frIjauHw1WxdXfbIvkD+3Q0PM/m3yx+mV1D632NeuVy1eT2+9//55tQPXyL9Y+77WJ+DmjXVpTCIRDo9fiyAcCIAACIAACIAACJ4DAdqvtqMHJmFGv18diE6pjU+PGbq261bdeYvTVN5SBiuKZmzMPSnU73RncOkP9eHLGqK/n5QWtrJXa5tyeQ+fqG5Z+CFMKduODtDPa4pBdvUrE04uZcjZrxYhK/zKlFNOGMHOb7mgBunapOTPknVBq1hStHf+bortffiYmTCuy9IVLP33+s998QVXwLEE5XVAIDjS14jztCYTWKXmfOFGg1vxDV1nrRrJSKOcnF14UE1efXvvw3uUPnzpeQXIYUixr8o2Jr27XbGVoFVYfTitOKU8GIZqP20Z6yfeV0AA5iEI7zXnH9qzqRMtl3//Ad5+VOAQBEAABEAABEACBwyTQrNbaWg3S8K9+f621a4kG1hL2aJBGklY8oWtGkvLvyVOuYFRprit/Tju0QkdfnNvJHBi1lsvuEaweqskivrGuomRXJc9qq1xDuzB/V1LPq3JF2KrqhuT/qezNdHu9sBNmrjPUnyDtf9/yjIitnbYwxu0Y1LCS/jQSlLFFFbbKt8p6dLiiv+QxHo+2OPSAH0vH7rPXeKEk0rey8UqG9tqiTr5g5R7kbxd/yec2pufVKwS7OJ3KmfUVy7VoJ9POF3dvP7EiS2VMaf2u+yypxDf/fvu3KsgzeZl1o3ebuPrGl+rs+9WJq27R6M3HR3fvJS99+pUg3+B7b12+96vq86/+TE1ufMlMcixrsISVQsow++27Ktb00qNXPwlZBYdzVjLsEPdOudR1NvPzMtyUfO510S4tZOh7RM8aCrq1wlBrM8VhfXroPuITBEAABEAABEAABITYqtYsNUgqghxDzeqDtgo0dbQEjYJ0OCJHJIqca8UKMydnKtnRZ8yU8+vJOzSDycYcOvoKDrHco9b5ed8I1q5M+Ma6vnavixktSsmrlm6t8Ewi+hcc3zr1tM3FY1jZ0enRPvco3HOmJoer7goCQ/34eMx9fn/7RrrIjpOc2W492l8NR1wK4tAGvmsFTfILITvRtcNB2/wl2Zjz+BL5zUrxYm1hmgVRcHv4r4++kpGloTGlD//riUi+HrVyqSClpxVj9eefqnqCTYSmUETriz+N84KoV374SsdYVvIoivELH6hVatj3+HwsYiJiJUvdXyjFcnSLh0o9FsliRT3s2JU6li6qd2bsg+V3LQh8D71YSAQBEAABEAABEBgeAloNchBpa5uiq6o1wdMO2eOkBACNgtqlG7YvwRuRGOJOkPn15B3BYY32Fhx9hQ6x7PyddgJjXU+7W/l13S55LCl4LnJV0kA9nRodvHOpfM5wXR3bwMBQv7nTsk/uZ4c1tihZnpLVdno4PCUQh3u+1pXMal3HmtOKVcXYeqLTqjafN/9zhyJLnZhST4Pk7iOX3f8j/l/SZhE/buHJ3/vB3dq/iclLL7+wlJ1QsayOXAxU8tXtO5b3kv2HnSciSifhat1cDshDegtDItn1eolciNY7JxbVfndrwAokgAAIgAAIgAAIgMAQEOBoz9gEBZGKB3LxGQo4pEDTzhMOpYzcb9/8o69DH2KRK5IGb9fFTXrLv69VOvfb08MvN8XL0LA7jx0YFMDLuzqYVrXuHuq7Fx8aN0R7Zw8TSuPJizxjUS9PwisZ7S0q9fBhhLUAcRhGJZhGPjEthnhpo7Z8FsQzixRMGu4xdKr4+pPfPXkl++ar4tO73phSynL+1mu8XM3nv3+LIkLHf/A3Tim158xXXPqXC3tczIbaFa/+04zTLsvFCx+4JGjyHs8wZNH4zoxeNeel1YjgVRcBaZvvGcerOZHTUH8BKAr1ft01RzFVCAtY93cXxyAAAiAAAiAAAiAw+ATIt2fOLcWEXphUHyutaI2Cbtq/kZBaSlsyMqJrnlGTVC8qY+joy5OZAlIPMMTyVOVpN8vLTNAaLTTHSk6wJEtOiEqkTrHTQv1T06F4BpkLtTPUJ5ev0Ctu8EW0l2aMuI7eZPYwO2G35Ffem7b0VnZ0R88eXVPD1xLHlBdplt1iaWG+cKNFa64sy07UVxJykVKKLGef+2ZOd40mKIZIRY4sfeeCuN0M/nbFw+v/c+Xptauy/GfvvEerxXAgqLNtizf4xyd4q/42bFKik5X32Ev5j7QgzT/cvvMW/2DGH756+vqLt2u63a/Xfvxe6961D55eUMWoxWVarfTze+/+6G0KK5Vm8HKm3kqto6abAE/FZB2oV2fllXoNIYiVYlFfTWQqmYVzZQorlSlMhiqiLx57Wl3exdC2kAgCIAACIAACIAACA0yA1GCO1pvYyFo2ksrKLdPiNDza4Y08b4KWNmyk1aEeOqqjkP9pbuFswxpH7ZZoDc0ZmSl09EWVB4dYciakPWp1RrA3QhpzJbmr8rS7s+Qa1NHMKT3kc5U9Wbse1Pb12srfKOnRrJ3Yc8cpTnUl1ihuqrsgXCb0XNmRZXxmctIrR46s5RFoaP4HWpYdU2dfWn36k91LncNEezSt/G0/7pNUvjF3n3Rjj40iGwiAAAiAAAiAAAiAwBERoHEaLSboWSnniFpGM8dI4MyZs0+efGMbgLBSG8WJ2zl/6yevVP/Q+y8ZHj4AtajX4beDFkAABEAABEAABEAABLoSoGlBdlRqqkAraupA2a4lkeGkEkBY6cm8suQzfP0V/lmL4M9jHGOHK5lpOA2PkT+aBgEQAAEQAAEQAAEXAQqbpHlT1gwpWuYGywe64IzoLsJKD/HCf+87fz7E2o+26j/95btH2yBaAwEQAAEQAAEQAAEQAAEQOFwCvrBSeA4PETcE1SHCRdUgAAIgAAIgAAIgAAIgAAJ9JYA5h33FicpAAARAAARAAARAAARAAARAYDgJQBwO53WD1SAAAiAAAiAAAiAAAiAAAiDQVwIQh33FicpAAARAAARAAARAAARAAARAYDgJQBwO53WD1SAAAiAAAiAAAiAAAiAAAiDQVwIQh33FicpAAARAAARAAARAAARAAARAYDgJQBwO53WD1SAAAiAAAiAAAiAAAiAAAiDQVwJDJw5ThcZmo5FP9ZUCKgMBEAABEAABEAABEAABEACBEScwOL9zSKpv2XRdjXZpYT6/5Uo40G48Wy6mBVfZ3Fs9qcJmzhT1lVWRc5nHxhUE1zkWUl19NZGphKQjCQRAAARAAARAAARAAARAAAQGlcDxeA6fe+65rkCMdLEQ4h+sZBLTiUR2r9prIham4roZIZVhfSUxLbXebmmBml4otYUw0jezU838fIKNkf9ksiBZSDvmcjk71a1unAcBEAABEAABEAABEAABEACBASJwDOLw7NmzH3/86wgGrMRIbi2UdimDOZcS8UyZ4kgLKdJpMprUCSuVKZuWgFTZypm4mMqWKaf6V87GuR3l/RNiLF3kqmTTqh7OFink4plFU7RLa1KIkihVXset/HqdajBik7Ie67/UUtoQu5y3WaDzRnopRNi6C2AfBEAABEAABEAABEAABEAABAaJwFGLQ1KG6+t3Tp06tTcIxiLpNN9W2ZAibVz66CZihhDtWrUpJnnP2kgNhs5O9ISwRrgohdR79fVAaGtqjk1ptx7pVkh95in0VFBeGbNaWSPnorkI56EDCHsgAAIgAAIgAAIgAAIgAAKDTuBIxSEpw48+Wj99+nQ0FTMnnX5yLp90xKmshqhxSKc3mrRyn9ShMZMk76AUbLu1Ks1RVHGn7H5cYfEYG49TktqXcaEUIZqaZXlHIaDkpVRRokphesySVbZb255E7YRsl244onEqy8rVZW3zMUeeel2L3mpwBAIgAAIgAAIgAAIgAAIgAAKDReDZIzNHKcOefYYk5GQYp4wLtZ1yXmsftchDZ8QmxNQ4+w0fkN9QcFhpkUI8O2zx8RifNZcbjWUrGwu5sMVv2o9d69dof6NcjcZJjydnqDntNuzQLk6BAAiAAAiAAAiAAAiAAAiAwMASOCJx2LMypDmHXvdgJ3Jb1dpuOm3OZVuGQQuKFkiwxbO30oYlLPVUw/AqeloN1ThH4lTqQNKcvFppsFQ8eZG14cZel8gJtwqpIAACIAACIAACIAACIAACIHAsBI5IHM7OzpZKv+x7D5vVB+102pgheVZfd9QZLzyTDmlMpvPvTKzX08tmutiwMoUqUprSuGya5JaU4lBOQKQqaYKiVcr6vYqp5Aytg7rrCewrVzkAACAASURBVD+Nn2NHpntSYogxSAIBEAABEAABEAABEAABEACBASJwROLwzp07h9LpZrXG6nDM1oZNWkuUhB811i6V6BTv8UaLxCyadrRpJbNwrlvwqSB1mDN5wdSKIztVZa7/VUypaO04YaZC+hJ3SzwBEhsIgAAIgAAIgAAIgAAIgAAIDAeBZyYnzw+HpcdgpZq+GOpX7GCNnJpo+RU7ZMMpEAABEAABEAABEAABEAABEDhOAmfOnH3y5BvbgiNdrdRudUh2tvLz/JP2uUbo72GEdkIqQ5qYSGuiYgMBEAABEAABEAABEAABEACB4SEAz+HwXCtYCgIgAAIgAAIgAAIgAAIgAAL9IwDPYf9YoiYQAAEQAAEQAAEQAAEQAAEQOCkEEFZ6Uq4k+gECIAACIAACIAACIAACIAACByAAcXgAeCgKAiAAAiAAAiAAAiAAAiAAAieFAMThSbmS6AcIgAAIgAAIgAAIgAAIgAAIHIAAxOEB4KEoCIAACIAACIAACIAACIAACJwUAhCHJ+VKoh8gAAIgAAIgAAIgAAIgAAIgcAACEIcHgIeiIAACIAACIAACIAACIAACIHBSCEAcnpQriX6AAAiAAAiAAAiAAAiAAAiAwAEIjLA4jGfKjc1GI586AD4UBQEQAAEQAAEQAAEQAAEQAIGTQWCAxOFf//Vf/+hHP4rAOpUtD7eQSxXI/s1CKlVgRar/lTNx3WGVQZ0qZKVwLUC3ajr4BAEQAAEQAAEQAAEQAAEQOGQCAyQOf/rTn/785z+P1oeHTOIwqyfhlzPrK4npTIWa2S0tTCcSC6W2EEb6ZnaKkuLZcs4Uor6aSPCptWphns6by2V59jBNQ90gAAIgAAIgAAIgAAIgAAIgwAQGSBx+97vf/d3vfjczMzM7e6nni+M44pSO0g46WYEKHLW8c/6c0U04ORvku9OVpLJl5dazBFtUerDeeGbRFO3SGgtDUckk5vNN2tnKr9fpw4hNCpFaSo9RjgWpHelUkzI0C3TeSC/Be8jYsIEACIAACIAACIAACIAACBwygQESh6qn//zP/zwxMdmbPiQVt0z+NrUZ6SJJucqGVFzj7I4TEzFDiHat2hQhOa1i/g9PTuekkc6RfpObkb6VtYNBo9Kdkqz8DFFfz2+50ng3Nce2t1uPRPyctPNxkkNnN1mRyq2yRs5FcxHOQ4UD/4MACIAACIAACIAACIAACBwmgYETh9RZ0oep1Jvf+973unQ8NcvqSoViqiBN0oSV+6QOjZkkyTepvnZr1S0RmjO0dndOivC0XHncDAWFUsznCmvPsZmkFJ9cQ1Q6n5ObtKLd2tbHVioHmpI0LN0g0ShFrJFeJhHJm7ls6cPmY448ZdciNhAAARAAARAAARAAARAAARA4XAKDKA5TqTf+/d///U9/+lPnrsfHY5yBpBR524osrKSOetSSimpCTI2zP+4B+Q0jcoZUr3LWN2QEqPu8VnfbrV13Mjn+lOrzp3sykRmPOZLU2jhsVSnDhfmCk25NOFxl+WnOIppU48InCIAACIAACIAACIAACIDAURB49iga2UsbpAz/z//5///jP/6jx0I0U2/eG7FZre2m0+ZctmVQNOcKqy8VBOrPGc9ENWHOUXyqVx8asQmaBiimkjMcXNreoRjRJBcPSQ+r1ThHNkgdSMuuciisx5ht0rOm8hqGFUYaCIAACIAACIAACIAACIAACBw6gQHyHP7lL3957bW5//2//79oZWjmXD8CIeSKLjTVUK0TY/9iYbP6gH2HMxdJGyoXYDMip02XFgulSmilGZXT8ka6pv+RL082LR2UulpZPCrdrlvOgpQakpPkBET6dMymGYbNao0sptmFcVq2lBavoWDV+6xN1VxEmpSIDQRAAARAAARAAARAAARAAAQOmcAAicONjY3bt/9XrVbrucuVjJxq6M8vtZZhjFkSi09H5PSXjM7ZLpU43JM2+iGKrONVjEpXeeX/Uh2yMzJ628rfoLVnxtLFzaJr2dJ4kvStnDMZXRJnQAAEQAAEQAAEQAAEQAAEQKAvBJ6ZnDzfl4pObCX0kxXkL+QwUNf8QOptVHoICAolpSpo6RqXqgzJ5kuS66bSRERnURxfBhyCAAiAAAiAAAiAAAiAAAiAwP4JnDlz9smTb+zyA+Q5tG06cTtbefmT9rlGvpP70NNtqQxJkUIZerDgAARAAARAAARAAARAAARA4LAIDNyCNIfV0WOul/ThdH4PNlQyCSd2dQ/lkBUEQAAEQAAEQAAEQAAEQAAE9kUAYaX7woZCIAACIAACIAACIAACIAACIDDkBBBWOuQXEOaDAAiAAAiAAAiAAAiAAAiAwCEQwJzDQ4CKKkEABEAABEAABEAABEAABEBg2AhAHA7bFYO9IAACIAACIAACIAACIAACIHAIBCAODwEqqgQBEAABEAABEAABEAABEACBYSMAcThsVwz2ggAIgAAIgAAIgAAIgAAIgMAhEIA4PASoqBIEQAAEQAAEQAAEQAAEQAAEho0AxOGwXTHYCwIgAAIgAAIgAAIgAAIgAAKHQGAkxWE8U25sNhr5VABoqkDp5Ww8cGL/CalCRFv7rxIlQQAEQAAEQAAEQAAEQAAEQKDfBIZDHErNtlnOTlndT+UbHsU1lS2Hi70D4bI0JNXcRTHGs2W3pPQdHsiGIy+sUBeUbrY4S7WsaFgnjtwsNAgCIAACIAACIAACIAACIHDIBAZRHD733HO+Xm+3dinFiE2q9NScKXdi48rFF0/OGELU71d8xQ5ySFqomKZae9kmYmPubN7DSiYxnUhk+2mbu7G+7pMyzJn1lcR0piL1dk5xlm00C/MLpba57Ej0vjaNykAABEAABEAABEAABEAABI6XwMCJw7Nnz3788a99UJrVB21KMs5JMSi1YXu3LcZmktKXOBEjFdduPZKlVBincvfpwFHt9ZJuMZ1ot2F7CN1uMVmnqK8mWNpNL5RaOrtTv5JJUlDRybF0cbNRSPkOhXCHlcr9ciZueeRcvlCXDdJIHdqqc5L30m2dv6d0TtVQzqTYjcndt1RcVLruj/MZzyyaol1a0zqWVCLJQee8aBbW68JILwXDcV2ZsAsCIAACIAACIAACIAACIDCUBAZLHJIyXF+/c+rUKT/LZrVGKsW4mCR1mJolf1a7xnJR+RKlWNytVbekElt2ebvMnHtiobFI4iewpQq2h9BcdrvKOKe5qOYfNvPZfJOOSd059RvpYkCwBaoPSbh4UzejhVaEDaTrdM5ANR5LnLNGOpe23JhG+pYzeTIq3SkpUkvkKa2v5wkjbVv5+RBvZ2WN1CJB0fG9ruLYBQEQAAEQAAEQAAEQAAEQGGoCAyQOSRl+9NH66dOnw4Bu7ZAWFGOxCREfjwlBUrCwUSfxNpsSU+PsN3xQJfEmdSM5vxaku2+FMriVjCFqC4EIT0+RVS6hNimDLH+g7bVTmZU7UTrVjPGpSmZaNrRbosozFd+hrs71aZmhnHIyMjbKBuURpd7I7mS0R4/rcltCZ51zHBRK+aVJ2rPKBaLS+ZzclD+2ta2Pwz+bj21NHp4BqSAAAiAAAiAAAiAAAiAAAsNJYFDEoVKGIT5DjbXCWlAY46nkDHnGWjtNIScixjiBxeFj0oZSN5JTkXUibWqmotyV/5FXTJ1wknxFHrVYgqqNXGdKYvGhmeOoTlW/MJc5blP6G+1pkFahXj6UjhVK7nIBr9mqo7Kiyn3qM/knuTkKRnVVrorUN9x6UZ5uW+rO3/eodFedvCsx+tJwCAIgAAIgAAIgAAIgAAIgMAoEBkIcdlWGfCUspbTMq8TItWfkRMSxmcWLnCBlUnOHZwbagk0tDNPeUXGSna6mLjLJkxfVlsqTGiQ3IHvtpBuOnITqDDsmpXeO/3dcdrrgfj+1DXq1Ha5HLmYjW2eNGIhhNecCs/8M8q3SNiUltHD6HpXOmV2bNavTlYJdEAABEAABEAABEAABEACB0SDw7CB0c3Z2tlT6ZTdL2K1nSvFmecx4ImI6bZAjUbvQSEDmTJM9e8u6NnnK7XTTJ9QnK0yqw1PEykHewkbOyU1Cq1lZr6eXTXLlpVU6xWraE/N4QZo0RZxactE+dGqI2vPasNvmwE2Zl1aj8c45pB/JKKbHSJ3O56UlttnU7pqqnqZZbmqr3X0PpPutIY/lsmmytgy4V11Z4+fINL32jysduyAAAiAAAiAAAiAAAiAAAkNOYCA8h3fu3FnzbmFUt6o1/kELmnCoJ8bpyEwdMyldba55gzzRzhZvYVVSGv1Cg3LNkeYprTqLc267Ikx5xh79ugPlrmS863eqSq35iboF36FOjv702LBeC81IitDjpQy3hPpQolBU3mgOpKvvUekqr/xfxrOGOCNdWUQ8SX5atfaPOxn7IAACIAACIAACIAACIAACQ0/gmcnJ80PfiZPUActb2IOs9fWaljalaZDsVSx4XH9R6b7ifEi/bUhVdGhaLpHqeEdDqkASCIAACIAACIAACIAACIDAsBA4c+bskyff2NYORFipbc2o7vh/l8L1Y4NHiYTW4FkQ5SL9/ocI8bhKI/0OzKM0D22BAAiAAAiAAAiAAAiAAAgcIgGIw0OEu7+qdQjr/kofsBSv0ZoPr4NWxwksjhqeE6kgAAIgAAIgAAIgAAIgAALDRwBhpcN3zWAxCIAACIAACIAACIAACIAACBycgC+sdCAWpDl4r1ADCIAACIAACIAACIAACIAACIDAQQhAHB6EHsqCAAiAAAiAAAiAAAiAAAiAwAkhAHF4Qi4kugECIAACIAACIAACIAACIAACByEAcXgQeigLAiAAAiAAAiAAAiAAAiAAAieEwEivVvq97/z5hFxGIf70l++emL6gIyAAAiAAAiAAAiAAAiAAAkdPYKTF4d/91X8fPfFDarH87flDqhnVggAIgAAIgAAIgAAIgAAIjAIBhJWOwlVGH0EABEAABEAABEAABEAABECgCwGIwzBA52+9Xf3ja6GuOOfUy699+PRyMlDcyXDlcvXeS3TeSQlk3n+CrlzYO2F1xTPlRjkbDzuFNBAAARAAARAAARAAgeMkkCo08qmgAal8o5zpz/ANQ8EgXqR0JDDS4vCl1afXVq+4+byw9MdrH956wZ101Psk9p5eU/+8tvVgCD1iNhvyXyHkSdNDBfvLQo8wq123ELWN6Zq4v1ZRCgRAAARAAARAAASOmkCqsNlwDbPiWXoP7wg532E/jLMHVJuuZvtR8ajXwWDL2SkXBhu1a+zK6lqNrl2JrjJddsMHyV0KHe/pkRaHX9Sr4pU32LlnbS/HXx3f/tX1rx9e/0Xyx79/qJPdnx1OqWzBDE5KhLPRrj9571r1tnj/++8l5b/6G28vvWyf7LZDN/SyWJlOJOjfQmtRvohqFuYT8/lmt6IHOp8qLLYWuNHpxEorXVQvwKay5WWjtNBD4oHaRmEQAAEQAAEQAAEQOEoClY26MM5pt95UcmZMGBeT+ngiNtauVfs38gob3YX3loZetnp07R/FUDDcoAFOZT6Nxqyou20MHbumCsV0W42uaZR703kL4C4ZvR86SI7OPhhnRlociupvtkXyh3Zo6PmfTb5Y/bJ6XFfmyuWrye33v3/PNqB6+Rdrn/dqTfyc0S6tVVT2rfx81trttfy+81Uy8wXrIVi5XxexcXo+xpMzRn09v8WVVtZKbXOOPJmhiftuFgVBAARAAARAAARA4OgJbLfajhqcjBn1en0sNqHsmBo3dmtVOf7pi2HHNrrri/UDWwmNk8mrkd1wGxg6TE3Nmvbomga0wnkL4C4avR82SI7OPSBnRlscirtffiYmTCuy9IVLP33+s998QVeGZwnK6YJCcKCpFedpTyC0TslL6ESBWvMPXWWta2ylUM5PLrwoJq4+vfbhvcsfPnW8guQwpFjW5BsTX92u2crQc4M4rTilPBmEaD5uG+klXzQpu8LZlcdBDjrilHesuATbe+7zqltV+0v5ne8+C4Sgr5Bo7ZBSnKBH5X2tTrd22sIYnwpPRCh8gCISQAAEQAAEQAAEBpdAs1prazVII5/6/bXWrnwLrt6Dy4EQW++MshrOxELl05OnXMGosrOu/DnT6n7o6M5buQyMpLLFtCHM3GajXC47+5m4HgpKe8rZrDUVyBVOabcrz2qrXIPA4KxIu4gaQLo6JUebOvw1Kt3q3GB9hI5d/Sbq6+5P7+HYHiT3kPd4s4y4OBRf3L39xIoslTGl9bue63H+1pt/v/1bFeSZvMy60btNXH3jS3X2/erEVbdo9Objo7v3kpc+/UqQb/C9ty7f+1X1+Vd/piY3vmQmOZY1WMJKIWWY/fZdFWt66dGrn4SsgsM5K5mVOj8UnAeQU2MzPy/DTSnysy7apYUMCTf6YlM8qBWGWpsp6m9yWCkVNZqYnlfOQCeLa4+ePjmzvsIey/h4zHXC2g1NDGZDCgiAAAiAAAiAAAgMMIGtas1Sg6k5s75RaVYftFWgqSMwaJSl59fwvBuRcw3PzNzsBiXagVfcVc6vJwdN02BNb6Gju+AQrpJJLJTaok4BkPPz886+ju2yqhtLx+7zgHChJNK35IKF7navixktSuOZm+nWijX88wWjebpmjwytTnFnaTjq6MmodN3BQfkMH6ayl1i7XlJLJL/3ubkGyfus4QiLjbo4FA//9dFXMrI0NKb04X89EcnXo1YuFaT0tGKs/vxTVU+PF48iWl/8aZwXRL3yw1c6xrKSR1GMX/hArVLDvsfnYxETEStZ+sIvlGI5xzfotYZvTbGiHkb8AmMsXVRTbPltEzv39rvx66XixdrCNKtO8mLutII1hSYKhMIHSSEFBEAABEAABEBggAloNchBpK1tGvdUazLgkLRiu/WIDadRVrt0w36lbk+xkZ1Sb9I9/ZP59eQgwdMa7S04utv/EG7XmoDEzk/ZgKfdrfy6bpc8luSGDF3x3tc1bafTqajOetN1uUH5jBymWq6XTXKplOrycu/RZN8geY+ljyH7s8fQ5mA1+XnzP3f+0bzyQoxiSvMB3yC5+8iXyAvJXHtx59N3f/z7vhl/t/Zv2Tcvvdy8lJ34LH+PqiW5eDUbP0/L4QTa+Or2nbd8rsW/DWSyEthJmOeXOoVUJUMPLGejObWk3+Z1tKdgF6LnrZWTVe3R3VxMj7lTuYT9pNMnaNmunFhNJJyK+Yx8hSbnItKjU7Q3ZPx9aKKuB58gAAIgAAIgAAIgMAQEONpzdoJmqYkHN3isQzNoxuYmpgRNOFyLmnC4H11ho/CM7ig1ZAi3/1f8diuuHXJF0riO40Ibxi6P/qzlJVxZTt5u6DCVxLk1wqXRdWwjs7duhw+S91bHUeceec+hEF9/8rsnr2TffFV8etcbU0rX4vyt13i5ms9//xZFhI7/4G/8l8eZr7j0Lxf2uJgNtSte/acZp12Si+LCB67fV0ze4xmG7GN8Z0avmvPSakTwKnkFPYGhvmcQfb0pXMH13abFY2xHOUczOAEAdiedYFQrriAsrDSeWaRgUuUxtEvynF2XF17IF1WhiXYR7IAACIAACIAACIDAcBAg3545txQTemFSffzAWqhUjrJu2j+TQBGJQp8K7aBnVDaVXXTCO0NGd57M4UO40EZCEj1VedrN8jIWtHALRavKiXY0zlSORE+RVFb30Zp1yetc3EobFGxrtRaVHmLM8SZ1G6amChQnbDt3e7M1dJDcW9FjzAXPoZCRpe9cELebQZfdw+v/c+XptavyAn32znu0WgwHgjrbtniDf3yCt+pvwyYlOll5T3opaUGaf5CewIfX//DV09dfvF3T7X699uP3WveuffD0gipGLS7TaqWf33v3R29TWKk0g5cz9VZqHTULN1q06syyOqSgc37HoxdW5oV4KU6aZiTm5Pn6aiJTySycK1NYqUyh/Ht8FaKNoPB6Djwg56G1cVWVrfyNkq68vpJQIe9hifSsKcbWE75wdl0XPkEABEAABEAABEBg8AiQGszRUgsbWcs0kky5ZVqcRo+myPMmaJGYRlqdt8dCUT2huYWzDWuctlsq1cWMzBk6uqNlJkKGcDwTskg1LHJcmLN/I6pFle6uytPuzpJr0EhKTw8peZELp3XqF51jp2VdzOpRKCU647qo9M5mHcfZsGEq+07lEFo5awPRc13sDB8kdyl07KefmZz0yp1jt+gIDZj/gZZlR9iou6mXVp/+ZPfSHn6vwl3Yu1/+djivI/026Nx9Uqre3uAIBEAABEAABEAABEDgaAnQqIwWK+w45yjMIFZQsXVr4QlXhqh0VxbsDgCBM2fOPnnyjW0IwkptFEe+c/7WT16p/qH3XzI8cgOPoEG1zNcRNIQmQAAEQAAEQAAEQAAEvARIv9kTi1KFnNnWgbLebDgaIQIIKz2ei00+w9df4Z+1CCyBczz2HFerlcw0nIbHBR/tggAIgAAIgAAIjDYBiqWkWUnW5KDQdQdHm88o9n6kw0q/950/n5hr/qe/fPfE9AUdAQEQAAEQAAEQAAEQAAEQOAICvrDSkfYcQlAdwQ2HJkAABEAABEAABEAABEAABIaCAOYcDsVlgpEgAAIgAAIgAAIgAAIgAAIgcLgEIA4Ply9qBwEQAAEQAAEQAAEQAAEQAIGhIABxOBSXCUaCAAiAAAiAAAiAAAiAAAiAwOESgDg8XL6oHQRAAARAAARAAARAAARAAASGggDE4VBcJhgJAiAAAiAAAiAAAiAAAiAAAodLAOLwcPmidhAAARAAARAAARAAARAAARAYCgJDKw7jGfrJzkY5E/dhVumNfIrTUwXKY+378uEQBEAABEAABEAABEAABEAABEDAITA4v3NIQm7ZdAwT7dLCfH7LlXBEu6nCZs4U9ZVVkXPZQ9bcEDeLaaO+mshUjsgUNAMCIAACIAACIAACIAACIAACR0XgeDyHzz33XNcOGuliQbr/uuaMzlDJJKYTiWzvYk4qw/pKYloKwN3SAhVfKLWFMNI3k9V52jWXy9mp6BZxBgRAAARAAARAAARAAARAAASGksAxiMOzZ89+/PGvI2ixMEskphdKu5TBnEsJFSZqycSpbDkQJprKNzh2dDNMs/nCStUhZ26E6s54ZtEkj+WaFJMkLOfzTbJiK79epw8jNimaBdo10ksHFa0RnUcyCIAACIAACIAACIAACIAACBwXgaMWh6QM19fvnDp1qj8dJvcixYDKzUjfyvonILob8Yetus+p/dRS2hD19UAsa2qOm2i3HtH/lTXyI5qLcB4G8SEFBEAABEAABEAABEAABEBgmAkcqTgkZfjRR+unT5+OJmbmpBuwmB4TYtfy4UXnFjQ3UHoaV9i3NzaTjA74TM2ywqMZgzJ/2LxBqQHbrW1vc2oKIvkTbyjR2HzMQabkRcQGAiAAAiAAAiAAAiAAAiAAAieIwNGJQ6UMe/YZ0nw/FdXZEbbWctstDkPtsMXHY3S2vtFt+mH7MUeSWhuHobJjktfGKbjS9Xl8ggAIgAAIgAAIgAAIgAAIgMBJIXBEq5X2rAzJExi2foxxjiJGm2IyZnjBG7EJTp9KzpCnUbR3aHXTpDeH54gnMVY66kOrISpF8xt5tdLjWjTVYzcOQAAEQAAEQAAEQAAEQAAEQOCQCRyROJydnS2VfrmfvqgwTppb2EiHFecw1Jx1QvoFI6YdNmlVmfSyaS43GsucPeQXKSobdcqg1Cb9RCJPQKTNaVkViZ+jZDX/kE9jAwEQAAEQAAEQAAEQAAEQAIETQeCIxOGdO3f2i6uSWZltyFVn6isLrUX6qUFXTe1SqZ1O82xCCkMNczk6eSuZhXNlb2nnpNwjdZgzuzgX48mLBrVVPYYfYPRZi0MQAAEQAAEQAAEQAAEQAAEQ6COBZyYnz/exuiGvikJJ+Xfuw0NbuW9yydMQr+OQ9xvmgwAIgAAIgAAIgAAIgAAIjB6BM2fOPnnyjd3vo1uQxm5ygHe28vJ37nONfNgvGUplSHMQMx1nLQ5w92AaCIAACIAACIAACIAACIAACEQRgOcwigzSQQAEQAAEQAAEQAAEQAAEQOAkE4Dn8CRfXfQNBEAABEAABEAABEAABEAABPZHAGGl++OGUiAAAiAAAiAAAiAAAiAAAiBwoghAHJ6oy4nOgAAIgAAIgAAIgAAIgAAIgMD+CEAc7o8bSoEACIAACIAACIAACIAACIDAiSIAcXiiLic6AwIgAAIgAAIgAAIgAAIgAAL7IwBxuD9uKAUCIAACIAACIAACIAACIAACJ4oAxOGJupzoDAiAAAiAAAiAAAiAAAiAAAjsjwDE4f64oRQIgAAIgAAIgAAIgAAIgAAInCgCwywO45lyY7NRzsQP74qoJhr5VB+bOAKz+2gtqgIBEAABEAABEAABEAABEBgNAsMjDi2dttkgQdgoZ/uvCFMFrtn5V85ODcI9kCqwSQUlT1N5p/sKiHViECyFDSAAAiAAAiAAAiAAAiAAAkNMYBDF4XPPPecnSkKomDb8qSf/mJRhzqyvJKYzlalsebORM50+NwvzC6W2uTwgItYxDHsgAAIgAAIgAAIgAAIgAAJDSGDgxOHZs2c//vjXfpITMVaG9dVEYpr+LZRangyWP23TJZPcbkAVFCpTdAyq2x0n9+3A0d3SAjdB/+bzW55WhJRnlmvR5bq0XZqFlKxKn9JWOX4/b3VCZ3CZ7c0Rzyyaol1aq1jJpBJJDrryNAvrdWGkl/oZ9eqqHrsgAAIgAAIgAAIgAAIgAAKjQ2CwxCEpw/X1O6dOnQq/AOaiiiZt5rP5pp3l4k3tT9MyiXTgssvFZuZ40mBloy6EcTHJ8aipOXnaGKfA0alx0p3t1rZdX+TOpFSo6vRYuqg1p+3SNJe1IUKQYnQOQmsMmu3PlloiZ2l93dKoW/n5rFaJTs7KGqlF4jIQEbCOWdgDARAAARAAARAAARAAARAYNgIDJA5JGX70b8CUlgAAIABJREFU0frp06dDGEoNJARJMtcEPJXPEDX29a2S9BMiNk7aLzXL0q9dWpAOwBU+wfJpu7VLNcQmSLmdM8Ruuy2M2KQQLPnataoWm1YTYe6+SkZWSE5FWWewLWUD2yGkq5NNkEUyQVUXNFuWc/0nFWxX1dp8TK5E2RFXUeyCAAiAAAiAAAiAAAiAAAiAwB4JDIo4VMow0mcoyG+mJBn3z8zpBVrooP1ACjvpGJSdj4/HOFnrPakJ+USz+oB1FHkLSbm1H9T44FxcCsVa1RdBKivy/+eEldpOQW9bjg2icp/9lOkirx+jY1k99QXM9py1D9qPtWq1k7ADAiAAAiAAAiAAAiAAAiAAAv0nMBDisJsyJGdgnlblrGTkbEDptpMRoeE4mjs8I9F2pk3ExuiwvbNF6pAEoTGTzM6ZJB3zFGZKUaZJchy2dhwF5sw59Ln74tlbacM6K01wWtdtWdGq8oR0M6p8pBH3vaYoyVenHeyBAAiAAAiAAAiAAAiAAAiAwGERePawKt5LvbOzs6XSLzuXIG9hI+dkYbEnks6xe4+8djnTNJcbjWWdXN/gwM6tam03nb44Q1pxY0tst2i23gwd1NeDUZ+6oO+Tg07TrjT2RqbThtUWh6oKtaYqLTZjuxdl/niW1lsdo0DT+aqrfKdd8kMumyaHwTrSNZifPZ80ZfJR8AxSQAAEQAAEQAAEQAAEQAAEQKB3AgPhObxz586ad/N3gIWcs9VX6KcdnMPAHnntXNP/BC3yaS3lIiNLxwxDakXlSDTGlHAMVOJPaOZpZVC5tUsla490W2FeuxHbpfWav5CVf6GjuaGFKFFGqZpzHZcijScv0vzJ3sJio9pBOgiAAAiAAAiAAAiAAAiAAAiIZyYnzwNDfwhY3kJHix64WprlSGuhdqhQrstKv/CxL/F5YPNQAQiAAAiAAAiAAAiAAAiAwBATOHPm7JMn39gdGIiwUtuaIdzx/WyG+2cJD94bWoZnQZSL9FMcQjs/XZXKpilQFcrQBQW7IAACIAACIAACIAACIAAC+yMAz+H+uNmlPOKwW7yrXQo7IAACIAACIAACIAACIAACIHDMBHyeQ4jDY74eaB4EQAAEQAAEQAAEQAAEQAAEjoWATxwOxII0xwICjYIACIAACIAACIAACIAACIAACNgEIA5tFNgBARAAARAAARAAARAAARAAgdElAHE4utcePQcBEAABEAABEAABEAABEAABmwDEoY0COyAAAiAAAiAAAiAAAiAAAiAwugTwUxaje+279vx73/lz1zzDkuFPf/nusJgKO0EABEAABEAABEAABEDgWAhAHB4L9uFo9O/+6r+Hw9AerCx/e76HXMgCAiAAAiAAAiAAAiAAAqNLAGGlo3vt0XMQAAEQAAEQAAEQAAEQAAEQsAlAHNoosKMJpPKNciauj0I+z996u/rH10Jdcc6pl1/78OnlZKC0k+HK5eq9l+i8kxLIvP8EXbmwd7rWNZUtbzYam4VUaM5UoZEPPxOaHYkgAAIgAAIgAAIjRIDGCeVsp8HTvln0fQRyeKbuu48oOEAEIA7pG8KSIFoVBK+WpSL2WCpYz6CnvLT69NrqFbeVLyz98dqHt15wJx31Pom9p9fUP69t+zMkni03pByMZ2+l26uJxHSmsr+aPKVShc1ydsqThAMQAAEQAAEQAIETQmAfo8cee+4ZZHZ5Wd9jlcgWSYCvozNgI++IJQocnc8DRa0U1IgxsrLIE55WPBXuTYBENtDfEyMuDulqLYuVaZIEicRCa7GDa4i/qy6f0m5pQZZaKBk55wbq77XpX20+43ut+It6VbzyBjv3rO3l+Kvj27+6/vXD679I/vj3D3Wy+7PDKZUtmMFJiXA22vUn712r3hbvf/+9pPxXf+PtpZftk/vZiWduzjxYkHJwIjbWbj3aTyVhZSqZhdrMrcN5gxjWHtJAAARAAARAAASOiEDvo8d9GlS3hqbTiflCc591oFh3AvHsounkShUWWwusCKYTK6100RIFPD4sLUilMJ3YswNBSf1ZUXeaaebnrdqooYVSW9Q3+uGWcBo48N5oi8P4OaNdWrMuyVZ+Prvnq9MsrNfHZpIn1EdU/c22SP7QDg09/7PJF6tfVg980+2zgiuXrya33//+PduA6uVfrH2+z8pksdRSur1+SI/drfx6K72EQNSDXB+UBQEQAAEQAIHBI3Dw0ePg9WkULZIegpIj2yoZW4pX7tdFbFwHCbd3tvbLh8QFqc3sRkR5Hoiu7F19RNTWr+TRFofNx20jdADP/l/lRJa+Zjospg1h5jaj/fvKOycLWhP2fJWoSxZMdFIazqw2SixnU5my7W7Wnm7t+3Y1Z+ehFuJURPs/rX2qyme806KujUo6iY2c/Rrl7pefiQnTiix94dJPn//sN19QXp4lKKcLCsGBplacpz2B0DolO+xEgVrzD11lZQa7Nsr5yYUXxcTVp9c+vHf5w6eOV5AchhTLmnxj4qvbNVsZWoXVh9OKU8qTgQ9cfnyFaGrc2G1t8ymKAqVOG+midQkYXWSwcaAeWYHO7yDdbrWNc/xg4doG373MHLCBAAiAAAiAAAh0IRA5ehQiqeMSnWAz1/hKj9Bcc0/4rJW364oPZFb4+MRuopzNOstGhA1XXD0LMdV19uTvTmVvsodgJ7SnqVlTtHbYaUtjRTn+52GeHmCHFtlHYiqfM2wf1T7KH1aR0RaHopJZqbPk81xv+o6RX1m6lRMUHFgspCoZ5fclL7/9UkFdkXhm0dytVa03CmZudoN8xJwnWAkVoMRlQ/um5/NUypOSWBE5x5Kx9KK4wa5taeHcffZBL5SES8xazVl5om5Zn/GRhunw2ukV5yWK+OLu7SdWZKmMKa3f9dyJ52+9+ffbv1VBnsnLrBu928TVN75UZ9+vTlx1i0ZvPj66ey956dOvBPkG33vr8r1fVZ9/9WdqcuNLZpJjWYMlrBRShtlv31WxppcevfpJyCo4lJPeD6VbK8SK/6mXNJMxQ33z6T7gXsuwATo1lV2S5EPBhtQTilQI/uMRm4g0GydAAARAAARAAASGkUDo6JE6MpaOWaO1trkop5aED/O2W7tGbJJ7npo12rvGOAegpebMdq2qgkjl0JRfUjtvnDl36PiEm9BDuOtiRr/fDxmucBV6C5qqz4zGZ6pQnKmpeUWBDpMCz5l1y6GnXH88elwoxXKd12sM1NQxYYpiWuuHFb/WseVuJ0dcHApRyVrXm14JqFc3/LZgLF1UjiP2uakvrZekzlC8WFuYz+t4cH0n8bc9pBJKbJdusCbUmy+lslZqm3NWKOJu6YaMeGTX9q71YoH0hsvN7TTnKagrD/2MNkyH14rKhksdPvzXR1/JyNLQmNKH//VEJF+PWrlUkNLTirH6809VPaFWBRMpovXFn8Z5QdQrP3ylYywreRTF+IUP1Co17Ht8PhY2EZHRmTm3B4/DQpTj0Nf8Vj5TEGr+seNE1XmC9YQi5eyPWm0Zk9AszCecm0RXhE8QAAEQAAEQAIHhJBAcPXI/7NFatdaW/YoY5jWrD9rmLA33UnOx2o319kwyzh4qx9lgzzmUjgQbUdj4RDahh3A0pUUP4YLDFbsa3gmY6jl70g+ky84zINc9Zncrj+1DlidsElzjIl2q/mzx5IwxcLMNVdee7U8Ph7wWnhua51cv7CSkvpALyechFL5ZhbQgTbfhfrCSniagWYGOh0h0b4Z93vzPnX80r7wQo5jSfMA3SO4+8iXyQjLXXtz59N0f/75vdt+t/Vv2zUsvNy9lJz7L36NqSS5ezcbP03I4gTa+un3nLZ9r8W8DmciDSlNK5cxgQ10+8uzNkmdPS3tdgt4YFdOCHbxbHL9RjOkT6jNQDyUHkXJe9kxu+GtXleB/EAABEAABEACB4SbgGT32umqFHOY1ST3eGo+nYsaDteajpFhMpsSMeHCj85ihy/jEBzMwXOlcua/0ST5kl50wzGIjbfWSdmd45D9Bk4wELVzf67U8CCSabUhDzaNoae9WjrbnkL5mTlA4wZPfWPLUuSYipgpR4ZodYYdW4klMZemnDmTKTfs3D/hOeWCFFHSsXp20nYz8MwzO6wdrBm08edEIVuKxgaJaZe88ifI74yr49Se/e/JK9s1Xxad3vTGllOf8rdd4uZrPf/8WRYSO/+BvXMXkrjNfcelfLuxxMRtqV7z6TzNOuyQXxYUPXL+vmLzHMwzZx/jOjF4156XViODVeCbL4pzCA2hlqDEd7unMNnZMn4jRMkXqfVIIw2A9HnoaKVVHnkmnUuyBAAiAAAiAAAicCAKho8fQnkUO87aqNTFzc9FsP24Kub94UeiY0tCaODF0fOIZhLiGcMHhCpntjp+KbObEn3AiRSl40JpVRD4hnilWX/GvRzoV167CVGHZbO9hlN6RIwURO47ijjmP4eRoew6bhRst+vWSZQWenPgyQJR+huBcmcJKc5xMiexL5K/ubpFmJy7Sq4XwRVE4l7OFVuJOrK/wm4mtTELQgjH65QUl7mHxzLqY1cZTQTmPjnpUulgsbtLLkHa9roIavMYXwnpH0fOzDeodd3m3RCs3zTg9ERxZ+s4FcbsZdNk9vP4/V55euyozf/bOewSGA0GdbVu8wT8+wVv1t2GTEp2svCe9lLQgzT9IT+DD63/46unrL96u6Xa/Xvvxe6171z54ekEVoxaXabXSz++9+6O3KaxUmsHLmXortY6ahZ0l65qK+qp8K0Txs8tzQdchxeguFtUlcTHUlYbVE4ZUPsTr9/mdEL/qi61bEx11PfgEARAAARAAARAYRgLho8fQnpD7LnyYR5GlIp2ur/MwQe5ftBewCK2IE8PHJ+6xpWsIFxyuaJETWf+InyDtzfOPyHlobSwBKiJ5c7OoXvaHh4np3Hv6ZP/B4AaXPTM56R3O76lvyHxsBCg8kgRHSEh0Hy2a/4GWZX2sdC9VvbT69Ce7lw74exWqwfK3Yfc5ybab4oY/hHgvJkbmpQt0i6rm1w20/hitJ+R/FxVZEidAAARAAARAAARAYD8EaMhBiyoeysBmP+agzFAQOHPm7JMn39imjnZYqY0BOwNI4Pytn7xS/cPBfsmwS7fo5V/tIi1H2yXb3k/LVbCuq5WKKHRgQGcc771fKAECIAACIAACIDBIBOhltD0BKlXIOUueDpKRsGWYCIx2WOkwXanRspV8hq+/wj9rEVgCp88ceDZ5n6vk6ui3MThSRG7ufZ2GTxAAARAAARAAARA4OIGtPE+RsoIhOfLRvSr+watHDaNHAGGlo3fNe+7x977z557zDnrGP/3lu4NuIuwDARAAARAAARAAARAAgaMl4AsrhefwaPEPVWsQVEN1uWAsCIAACIAACIAACIAACByIAOYcHggfCoMACIAACIAACIAACIAACIDAySAAcXgyriN6AQIgAAIgAAIgAAIgAAIgAAIHIgBxeCB8KAwCIAACIAACIAACIAACIAACJ4MAxOHJuI7oBQiAAAiAAAiAAAiAAAiAAAgciADE4YHwoTAIgAAIgAAIgAAIgAAIgAAInAwCEIcn4zqiFyAAAiAAAiAAAiAAAiAAAiBwIALDLA7jGfrRz0Y5Ez8QgY6FVRONfKpjrkM5eShNpwpErHN3DqXdQyGESkEABEAABEAABEAABEAABPpIYHjEoSVaSNvQv3K2/4pQCSdVP/9fzk71D/RUtsx1FtwqM5XnvniS+tfgYdaUKrj6onqhroi6RkPYo8OkhbpBAARAAARAAARAAARAYDgIDKI4fO655/zwSHUU04Y/dYiOt/LrdTLXnHPUYWrOpJT6RuUIu1HJJKYTiexBmiRlmDPrK4npTEUq3hz3wtqahfmFUttc7quu1pXjEwRAAARAAARAAARAAARA4DAJDJw4PHv27Mcf/9rf5YkYK8P6aoK1zfRCqeXJYDmv3L4+txtQBYXKFB2D6vZ9yX07cHS3tMBN0L/5/JanFWF5//yuS9ulWUjJqrRXU1tlOQwr96U6nNXq0K0NI2q2m/d45FRm22Cnp44k8zVt1yNUZi8Qndkp7uQP7MUzi6Zol9a0vCSVSHLQla1ZIBVspJd0N12nsAsCIAACIAACIAACIAACIDDABAZLHJIyXF+/c+rUqXBi5qKKJm3ms/mmneXiTe280pqEJNCyy59l5niWXWWDxJlxMcnxqEqYCWOcAkenxkl3tlvbdn2RO5NSoarTY+milli2S9Nc1oYIQXLOOVBFpAG27zA1K/2G96XKCq050g7XCU9PjXSRIzpDmnaV8O8G6flzuI9TS+S/ra9bsnkrPx/ihKyskVqkS9XHoFy3CdgHARAAARAAARAAARAAARA4FAIDJA5JGX700frp06dDOioFhxAkyVyz3VQ+Q9TY17fKfjkRGyftp3RXu7QgHYAr0mFHWmW7tUs1xCZIPp0zxG67LYzYpBAszNq1qhabVhP++YFcuYrJZKeirDPYlrKBswrp6mQTpA0ZKQHd6tDtNwyvWVbT5T9LYUqHqnTgsdwNazqyHoue8v7JHkVmpRPS6q5CuvmYXImSbae6cA4EQAAEQAAEQAAEQAAEQGCgCAyKOFTKMNJnKMhJpSQZ0zNzrpVd2g+ksFPKi8/Gx2P0v633pCbk9Gb1AYsWJZ/aD2p8cC4uhWKt6osg5fyBzQn+tJ2C3rYcG4QMIiVXHseg6lhWlShMiixVKsuOzgypOdB6SIJqXZjL3Ip0YLIkC206pLRMsuht7RCNHrf2Yy2keyyAbCAAAiAAAiAAAiAAAiAAAkNAYCDEYTdlSC6rPAVMVjJyNqB028mI0HC+zR2ekWh7riZiY3TY3tkidUiC0JhJZudMko55CjOlKNMkOQ5bO47cceYcKnef3UY8eyttWGelCfYZuy0rWlWekG5Glc8K96Rk7TsscEypLV871Oy0QXskZfnYHYPKx7Z/kr2UbHRo05yzP5tlRn8qQy0gAAIgAAIgAAIgAAIgAAIDQuDZQbBjdna2VPplZ0vIW9jIOVlY7Imkc+zeI9dZzjTZn7ask9WaoFvV2m46fXGGBNXGlthu0dS4GTqor+vlVXT2yE8OOk27zrI3Mp02rLY4VFWoNVVplRfbvejKT+Gxi2aajBNi1+uu9NfsKkROTxmoyY5Id+OiSUugppdNJ5mWh8lWAk3Hs7TU6xhpyPm8p9a9H5C4XTZNjsx11HSwFnbG0izOR8EzSAEBEAABEAABEAABEAABEBhYAgPhObxz586ad/PzYiHnbPUV+h0F5zCwR64z1/Q/ISWTzCQjS8cMQ2pF5Ug0xnr8MQlWYqqldqlk7ZFIKsxrN2K7tF4LmMIJJMtsc2WjMlFFw/JueM18xt4qGd1KfcW9Omgl4z6ys9s77qbtxAPsSNen+/c4QuqKJy/SlE6v9A3JhiQQAAEQAAEQAAEQAAEQAIGBIvDM5OT5gTJoiI2xXHaOFh3ivkSaTtMjaXZjhz7KBVTpR0dsPRxZFU6AAAiAAAiAAAiAAAiAAAgcJ4EzZ84+efKNbcFAhJXa1gzhjufHJMh+128ADmFvuptMKwMtiHKRfh1EUAirP7+k0W93pb8RHIMACIAACIAACIAACIAACBwCAXgODwjVIw67xbsesC0UBwEQAAEQAAEQAAEQAAEQAIG+EfB5DiEO+0YWFYEACIAACIAACIAACIAACIDAEBHwicOBWJBmiPDBVBAAARAAARAAARAAARAAARA4kQQgDk/kZUWnQAAEQAAEQAAEQAAEQAAEQGBvBCAO98YLuUEABEAABEAABEAABEAABEDgRBKAODyRlxWdAgEQAAEQAAEQAAEQAAEQAIG9EcBPWeyNF3KDAAhEEfjed/4cdWro0v/0l+8Onc0wGARAIEgAz6UgE6SAAAiAQAcCEIcd4OAUCIDAHgj83V/99x5yD3bW8rfnB9tAWAcCINATATyXesKETCAAAiCgCSCsVJPAJwiAAAiAAAiAAAiAAAiAAAiMMAGIwxG++Og6CPSFQCrfKGfiHao6f+vt6h9fC3XFOadefu3Dp5eTgVqcDFcuV++9ROedlEDm/SfoyoW9s/+6DqVkPFNulLOdKPfSbKrQyKcoY39q66VF5NkrAX2NeinX9avXSyUnNU9XOB2eJM4pPJdO6v0hRNc7ZM9dpy/vwZ/Soa3u5bEQWsF+EvvaaJc/On1taz+dRRkPAYhDuiM3G/JfgQdNtE1ly5t6XybwPS1HVPJIjqusIg3XgyBV2Gy4isWzNJZzRsz6kCtXzfH/nCHQnGpFprsrtJJVumWzyyp9Wn4GWxFkXjk7xWfpgegym46ZAFvuLWV1OTTR05h94DRhVeV9SnZ6EO/tKgQaCrmCNmT7mgRKdTbP3XEPZ76UVqW22d6qbCLWjrsq763lzzncxy+tPr22esXdhxeW/njtw1svuJOOep/E3tNr6p/Xtv4ZYt8G9sX1XHHXc8Cd7rmpbGPoLtV3l5WmHx12lsHZUd3x3vyer3k4Gfsr6fSEn7H2g9FbIWdy6lFwmJKTX+5HPcEiHncRNXBj+gvOvStkM2XrMU42eA0jm11PeC7Z5819t1Afw28Y3abPWp3s+fTl8dQfclE8ZYf4YASeS84XRF9Hz8V1RhrO/Rx6QUf0Dgll0UNiEHsPhXrKErx8PRXrmmmo/r507c2BM/BfB/WnxPVsd/4YuRK5Kb7c1ih6ny17awhtfZ8197/YiItDulTLYmU6kaB/C63Fzn99JX26nMWLtQVVZDqx8GCmaI0IKxt1YZzTb/ankjNjwriY1McTsbF2rdqUddStFqcT8wWVEnJh48kZsds2Zy3FqnLwXVuMrevWE/fnokcnka1Usiv1sfRNS7jGs4tmu7SQqagWnFKJrJUkhJO4InINewQcYrU7qV5v2a240wP7e78Knip2S+pyLJSMnP1lDk30FOtkXgfO8czNmQcSFz2+l43SAt88K610sfPN090ej3HHfCCHCJ47ryeDvqhXxStvsHPP2l6Ovzq+/avrXz+8/ovkj3//UCe7PzucUtmCGZyUiJf6dv3Je9eqt8X7338vKf/V33h76WX7ZJ92Iu9e51ujvuYdbiqXKfwY8Xzr+UlSXy80m4X5xHw+8nnhqqKX3f7VFv09iiTjNzD6oco5+S+o/ZSeTmzM0p/nSkY9A1fr9HDip/d0IuoJFvG4i6zB+YJv7bT9lh79sXMXuR7IYWb0Ym0wD55LJ+C5FPlFc24efgQFr37wPgrmGYk7JAiih5RI7D2U7SmL9/L1VKRrpsi/L11LHjxD//7oHNwWWUOqsNhaUH8+nCFcqlBMt9UQnRKtcbLS6rOifqCWebDtVBDaunP62PdGWxzGzxnt0pqlgbby844cirgwqULOrK+4hmh0u6/UzZwUBtuttqMGJ2NGvV4fi02omqbGjd1adSui2pDkePKiqF1fr5tzzhh9KnuT71o9CqJSlUwHeRlSq5VUyazWjfQS1UwjobQo3YjWqL5KKtkEa7DOQkiX2VgrifRN5a7UaSGfe74KIXVwUrOwXh+bSUrvqJ0lNFGdjTSvE+fUUrpNI3WqgdS7UV/Py2taWSu13VfKbj6w08GeQN7hS6j+Zlskf2iHhp7/2eSL1S+rx9WPK5evJrff//4924Dq5V+sfd5na3q9ezvdVB6TKvdJHTrfenmbbdjvaTxZB+Mg6nvUK5mOD1V6WcuPXNdDr5KdV1+6nnu/p8ed8wXn+ndbOz03c/wZe7E2Ig+eS0d3+fr9XOr1i9bj/TySd8g+rv4esO+j9kMrMnR/Xw6NhGf8zFhi4+TLSc2Ss8QSBTSuE8rBQ+qAXkFmNw5ijHztWHLkpWv0brd+kPr7XXa0xWHzcVtppB6xuu8bu4h9XZvVWlurQcpZv7/W2rVGeTzCa+3s4a0/uQsEiUl6zWMu6thU9iXqu9ZufZ87lQxr2nKZpeH1vbkjuJuuwWsnA7byN0geFnWgS0TWvV6FiGr2nhxhXifOLPJb27KpCZL/9/WgnV+4GuNeXdrFIOWdo7ePKrqYcst9GeTgCl0IJjoprkgzSixnU1ZsHgPXEQu6KldzsgnrorA7S0t9a5+qKqYNYeZ6NayRs1+H3f3yMzFhWpGlL1z66fOf/eYL6hlP4JHTBYXgQFMrztOeQGidksCcKFBr/qGrrEXUSqGcn1x4UUxcfXrtw3uXP3zqeAXJYUixrMk3Jr66XbOVoVVYfTitOKU8GfiAwwutmBONKJBH9Hj3drqpfJXKd7taHdJLIus2c10pv2GuUzLoXVvL6Vb4pf87qIu4qrKDM8ke5x7T94/PSPdhxPeoRzKdH6qhZ92N97Tf++PO9QWXY4d8pTDf/QWc/PZlrQglTcz1jXMCU63LofPw67nIaxTZNefquL56/Kawq7U95OnN7JA7xGWV/UjhbHgu6WiFQ3ou9fhF6+1+HtU7JPLLFnmiA/akDlZ0Hrsh3w6K8NTPAT5r5aU/3NHhYJYx4Q8Nu4lylp5FuhLXE179XYj4+0JVh1cr29R/L/jAvR/yHIj+u+kUlI8F/wNTNnRc/9EfGhE6RNdD+oMaJt8OrxfCXzZGtn7QVg9SfrTFIf09ZY1Ef7D1cEqzlInWH3I5VNYnQj4ftSxNuFWtWWowNWfWNyrN6oO2CjT1CAk57PZrAG+99PpaPOAgVFKetjeSKrFzOV9jv+V2FrsL+gFkn5E7MtrKIK+h9zW8Xco38clbuOejZuFGadfyrEYW6stV4GfWohlwz4Ym2paEmteJMzmErSdIfDxmV7OHHa89Zm52g6IaePRJj0sKcVDBcgu1GaWoKVFHriampcPEk5LgKF/7BhhLL4obVJu6pefuc6zdAolz9hCrzWrOymMX1Ketz0qGirVlLHFHw3Q89vSK8zJMfHH39hMrslTGlNbvemo/f+vNv9/+rQryTF5m3ejdJq6+8aU6+3514qpbNHrz8dGO95FWAAAZLElEQVTde8lLn34lyDf43luX7/2q+vyrP1OTG18ykxzLGixhpZAyzH77roo1vfTo1U9CVsGhnOxUb1khi50i+rrfvfwF7HRT+Q2VfmgVTy5jSn1+w14Nm8ouyfuh4+Vu5udlUD3fNsIKLw+9Ff1Geo5Dv0fRT1dP2fAD+6EafrpDavgTLOJxF6jH+YIHTnVOGEvH7G/cLXvdoG5f8O7XKNAdfgKEfvU629flLJ5LQ/xc6u0R1OUO6Hb6pN8h3fofPB+F3XkUtM1F+SgI/6u93do1YpNcb2rWaO+ql8s0dLTnH9nffe8QLvSh4X4sXBcz+nVt2B+LiL8vodUGe+1OCftLEdaiu4zedyiJtPPA1GeP9pOG0xyfIiMHOQBQj5loHO6MuQ9kEsWqztTsyVveqtyte88c79GIi0NSX1kaGy2UYjSVzi2HnGhvOcJud7lKljdJq0H9+pmcbNIrzV/41iO7DrvyqPgo1wOCXvMEQiWpIo7eJiFBU24ity6tpPI5CnwNhH3apew5PGENaO9Z2DlfWjN/nUIuc84rNN95eXigqzCWLkoZz3NB7Yjf0MSQpruY5+PMkSSW47C50wqpLjIp3B7reUSl+NWRziPfRvCfCuk28ah3X4onnHXXCg9mV/au5WKmt5sqWEIa5jTnKRhpNJ+INkzHYwt+FWlvD//10VcysjQ0pvThfz0RydejVi4VpPS0Yqz+/FNVj11z5x2KaH3xp3FeEPXKD1/pGMtKHkUxfuEDtUoN+x6fj+lX++4mGJ2Z861B4s5g73e7e/1fc99NZddj79jOeY44oLdM9gm506thW/lMQSjnp+Pa9VZlH/HfJ7GiXGShV9zOGbET/j2KIBNRhy95Dw8Zd8nwJ1jE485dkPddX3D/qS7H9jeOAiucrM43Lpxq92vk7458AoR/9Zxme9/TzxzPw5NeDOkZFqFmSxvwXOqJ8tE8lyK+aPbN438E9WS6yjQyd8gemOis4dgDjwLf90X/8eXhopxenpqL1W6st2dohQrP/KOIyxf20PA8Frby6/ovcugfi/C/L2HV6o6Gf4Y+HEJbDCkfoBSS5yiS2LMqlxGxpmtZM8XkkHKxVarv88+Qx3T+6+N3w6gM/tY9xY754Nljbn8wmufX53l+9VJIVVwz+gLG0bA7t7yUKnjy8NuF1ooKGaUvhjE7wSFkD25wCkUbjs1NTAmacLjW+4RD0obCMIuNtDbAXErlsxVufTEZp6UpdPr+P2kmT6xEUkpkysVb2aqtqXqoUXo1F/ZgA0edzRSXC90m8/Z6Ffw20oz5oP2hif6S8jhgXgfO6vqSNlc1Sbew3KdnumhvdLjEPdhDfhtfAJvt8gs13Ersx8OrU/2CHUp7MOzz5n/u/KN55YUYxZTmA75BcveRL5EXkrn24s6n7/74952b3sPZu7V/y7556eXmpezEZ/l7VJCGZVez8fO0HE6glq9u33nL51r820Am8qCSLOMou4bR/fJ1uXs73FSBhum5QTEIxblUfJxiStd92pCjw3yGhdQgg3+KFDROCyZtcSBQsYOjm15r8osVp6HgFQ9twpMY+B7psz2QiX6oNvvy0Ov5cef7gusuyE/tzLQffewN3ssboiBVvi49XiOPKf076H5j7/Hrb5uG55JCcXTPpS5fNPvK7G1ndO6QvXGxc+8Lu/x2sEi7NR5PxYwHa81HSbGYTAk9dLSrD+zs7aER+GPBj6+wvy97q1ZbFXymiS3/nyf7gakLDc4nRfbmxGqC/566NtL8VgKJgthGxnVqP7tTvAyNe0BPY/sZHlNNhLa+nyYOpcxoew7p++DxaHX9e0bvfChI0l4SU47AbH80XyByophzSzGaL6i+EfpYxoj2eAX5fYxegs9yD6o5ftQ6zeBztd5jhf5sNN5dNmktFTKR48HIe6inNfpzBo4pIJ5UZe8L2KgKVNSZqUMdfLXu+Sr4yh/40G9eZ85y1jK1KXNZIZssmA82HZTEgx3MwFO+ZMynJzGVpehEmeKs8SOFunWr9YDBnioaz95KOy4pq0c8vS1YiceGUMPks89V8OtPfvfkleybr4pP73pjSinP+Vuv8XI1n//+LYoIHf/B37iKyV1nvuLSv1zY42I21K549Z9mnHZpWCYufOD6fcXkPZ5hyO/y35nRq+a8tBoRvBrPZFmc00x0CrKNnnjQ693b+abyc5AvlRdvhk4yDjcscBFJurStt5XhV9Zqk58G5DR0Jh6HXnG/gWHHvu/RHsh0eKgGuKXy3iCrMEs8aXt93OkvuKcSOpCzBpy1uHilHDsAzJ83eBxKtddr5KrOU4//q+fK16ddT3OhX388l7qgPvTnUq9ftC527vP0CblDSAZYs/6cH3vgeftRky/k2K/H0aNEFPZXmx4pYuYmLRf/mNaS5f1FWoaw29/z0IeG5yq4HgvhfyxEyN+X0Go990TgT4ynUf1wCLZI92cvATieto7kgCOl6yseV4+n3VSBJvXYURqeU3s5UIvZqBlDPAeHBDXPJOrW+l6aOJS8o+05pNFMi9acWFZoyYnvjJAiaPNboiq97t3UXj16r+YpRWowR3JxI2tVQN+fHCmx+53fPnBweU6WaJcoCFPUV12vMqjK5RwtUFGpBFrn+8yVM8JobzKv1GvQkqtWOY4HmykWC48TGQ58dSyh0ETtkXMS+b7O7uNNkGpFQ/MatPer4C3fhyOfedGc+VrMTSjXIbtK6E6QF47EvFrClF00652mqEVZW8ksnNO18Xw/ecO4E6kJumT0Wk7QgjHaq6zbjarVm14Xs/pup4IycowH9BeL8n5u1+s6IE6+WaR7cpHfb4UbtjLbsG7a3RKtwDXjaokjS9+5IG43gy67h9f/58rTa1dl5s/eeY9Wi+FAUGfbFm/wj0/wVv1t2KREJyvvSS8lLUjzD9IT+PD6H756+vqLt2u63a/Xfvxe6961D55eUMWoxWVarfTze+/+6G0KK5Vm8HKm3kqto2ZhZ0l/K+urzJ7+yAUvbs93b/RNFdY8v1RO0xuHkJFC0DARdhFJVS0W1Y3iurL+tuTTQAj7+UM9zbjvOn0rhvbdX5nwfI+iyXieJ/RnsuNDlc/u0A8I6UcuW9jBRe9/gu0sRT3u6IoGN/cX3H+WLFmJbdIEBP2opudjJ0u85cOo9nCNHFbWA5lmOkV/9ewme7tedvbonTCzyXftPKzwXArCO9rnEn399ziMYYtxh9AXyveXK3glO6REP98Chch9F/5Xm0SaSKdVdIjcv9h9Tfvwh4b7K+nqV8gfC2ld8O9LeLW6K+HjBHej+i9FsEX9c266roH5JD3MM0es5zmZxeOuCr1M5AX5aGO36B6e8HvsV3jre6zkMLM/MznpHZ0dZmOoGwSGngD9Tb0pbvjCLO1e0btGWgkm+l2UnfHId/iRR7+Qeaimzf9Ay7Ij755qkH7t+ie7l/ryexXlbwMPxsG9uIePe3T63vkLfvik+9PC0FwvPJf2dsFDnkt7q0Dnxh2iSZzAT7q4tLxd1CjlBHYYXeoDgTNnzj558o1d0WiHldoYsAMCPRKgV2i1i1G/zkFLmAbWD+mxXmQ7MIHzt37ySvUPff8lQ23XKF/cEep7xy+4vhcG/XOErtegXwqOpT/U59L+AOAO2R+3QS1FL1nsCNg9RrwPapdg1/ESGO2w0uNl37fWeSkd93w+6RzvW+0RFe270X0XjDDkyJM5zi2iUTrVOX44ohySD0qAfIavv8I/axFYAuegNdvlD+fiDsfX4XD6bqMdrJ0OX/DBMjTampG6XtEYjv/METyX9tdJ3CH74zaopWiSC8UW7y/ifVD7BLuOlQDCSo8VPxoHgRNE4Hvf+fOJ6c2f/vLdE9MXdAQERpkAnkujfPXRdxAAgV4I+MJK4TnsBRrygAAIdCcAQdWdEXKAAAgcLQE8l46WN1oDARAYegKYczj0lxAdAAEQAAEQAAEQAAEQAAEQAIGDE4A4PDhD1AACIAACIAACIAACIAACIAACQ08A4nDoLyE6AAIgAAIgAAIgAAIgAAIgAAIHJwBxeHCGqAEEQAAEQAAEQAAEQAAEQAAEhp4AxOHQX0J0AARAAARAAARAAARAAARAAAQOTgDi8OAMUQMIgAAIgAAIgAAIgAAIgAAIDD2B4RaHqcJmo1HOxgfhMtCPWZMx+dQg2AIbQAAEQAAEQAAEQAAEQAAEQGCPBI7ydw5JPi2bLvvapYX5/JYr4dh3pYX11USm4jLlcM2OZ8vFtGASTVebPeySMM6Zor6yKnIuqsy0QDXJasesaqhHa+eoGcPftR6aQRYQAAEQAAEQAAEQAAEQAIHRIHBYnsPnnnuuK0AjXSwMlqOtslbaFeZiZ1dkhNmVTGI6kci6ZWVXApRhIqYlXC+5dR6pDOsriWkpY3dLC9T0QqkthJG+mZ0S8czN9JggoZiYXqkLYS4XJgrzdN5cLtNZbCAAAiAAAiAAAiAAAiAAAiAQIHAo4vDs2bMff/zrQFsqgSVNQokW0jLjSquomEwKy9zU6kWmlDPxVJ4SXenkFMuUZUrDrywDlaichZSMPlUBn13yTOTX62IsvRTUrJbZC6QeSW3NpSwznMpVzdyKbG7Tsk7ZQB0RU9kyd0T+s0JhlfdPUIvFTd2dgIVBjvHMoknSb00KURKlyuu4xbYT0thkPHnREKK+zi5E0rukGdngZoHOG2F9C7aAFBAAARAAARAAARAAARAAgVEj0H9xSMpwff3OqVOnOqKcGif5IkR7h8JKSQ45gZFev9zFmxQ6KTetalIFCo9USeayPknH0ZUYiySl5NZLnp6ch6o6/t+p3EmrbEiRpnTvRIysbdeqTTHJe9ZGajB0dmK0hbokfaaWiEB9PRCRm5rjfrZbj1ReLbzlkXGOJmZKoUiOUTgPFSH8DwIgAAIgAAIgAAIgAAIg4BDoszgkZfjRR+unT592WvDvmTn2nkmFV1/lqMjULGsamg5HHkUVGmm5E0l6iZodMCli46RvVGYZMJlIrLIIU1v3SrKVXvII0aw+aIuxmaRPQSmzN4sUril2LacdNW1Z6I0mrdwnw4yZJNvLgm23ViUNrOJOba8pd6eSkWGfVCF1k1h0sFB31Kqy3dp2UnjPckK2SzfyW7IL5CQsspfS1tKUqfmYvIjkWvQWxREIgAAIgAAIgAAIgAAIgAAIiGf7yEApw24+Q7vB+oqcMBcfj3GSudxoLFvnbPXSfkAeNyG2dljT8EmVWTri6OhRqy1MV3p4JeRjk2u9dGpI5+E2OPwynaPwy7xX8vE52kjIyTBOtUSqu6A6z/8rw2ITQjpIrV5QWKlbqDm57b0IC8PW7Gk/ln1SRbW/Ua9GQ12YTzyW/liydj1WXDY9+e0GsQMCIAACIAACIAACIAACIAACFoG+icOelSFN3stus04yc+XM9nxBGcK6xhMnGZz151wz6fsiyeQO1OSz/kriGaeM3uslD4VfLpppCr+sOCax2f+3vXOHbSKLwvAgLQ0VJYoUG0GCwHXoHLRhC0Sxs1JaS4iK2u4hBQ9ROgXbhAKE5C1TuABFSEEi7kjtIC0gxXQUYSvYCu055955ejzrhGyI198IKdf3nvv6hubXeczYxWZ2NrY+Nhr1q63digSA3nXlQx80Kl5YRqmG0Zmyf/MnzI76XxYmavpQNKcG5Q7NEkelnVeSNlOxpoWL0QkBCEAAAhCAAAQgAAEIQODQwkqXlpY6nT/W1h7H/0rg9tvLWkXTSmv2rY6Kj4HUiNPCZDy/mAuYNA+hWCaZiuMsMo5NtM331m7xgZ2LUhimt5loSis8s62foMg+viDNeCe0lMaKuCXtsQREaSUAtRJO2HKJhaIMdbMoQbF2ThMgo6TE7Bn4BQEIQAACEIAABCAAAQhMNYFDE4dPnjxZyz7lXLtNzRi08jPdpqUaltv7UQmYVFmpz6BzTwtx+mecRcaxiZbTojLfUbulv7E1CCqV2aD3ymlDJ/x09UGn42+gv1w1UW3pM9YJTR1q/dGSp+oSDlUZirvS+zytiqlLgCyZyhAEIAABCEAAAhCAAAQgMI0ETszPX5jGe//7nS1FUL9Or0Ghx+xx6Yv7inSVG1hqohT+sVTPY3YjjgMBCEAAAhCAAAQgAAEIHDWBmZmze3uf4l0PzXMYr/h/adhnA9035Y/dlXba9kn7ldIQ3OypTRlKYiLKMMuFXxCAAAQgAAEIQAACEICAI4DnkP8JEIAABCAAAQhAAAIQgAAEppEAnsNpfOvcGQIQgAAEIAABCEAAAhCAQDkBwkrL+TAKAQhAAAIQgAAEIAABCEBgKgggDqfiNXNJCEAAAhCAAAQgAAEIQAAC5QQQh+V8GIUABCAAAQhAAAIQgAAEIDAVBBCHU/GauSQEIAABCEAAAhCAAAQgAIFyAojDcj6MQgACEIAABCAAAQhAAAIQmAoCiMOpeM1cEgIQgAAEIAABCEAAAhCAQDkBxGE5H0YhAAEIQAACEIAABCAAAQhMBQHE4f5fc625vv1me7sd7m9quHqQWfvbA2sIQAACEIAABCAAAQhAAAIHI/DTwaYdbNaZM2dOnz799u3b4ukiup41Kn7sY+fGcrtfbHgIvZm9gt7dy83uIaw6uUuEq29W6sLhXrBypx5fYyAvYVVeQq0lb2bWd/fuLayd0zcljSmnFoOiAQEIQAACEIAABCAAgckncKSew+vXrz98+PDixYsF3LJqrcDg8LpE6mwnKlTXra+8WW9dOrwdClfqNhcuLyy0jqEINWXYu7vgFLLIcjnnjc4gCCqN+4Kl1rwvylCE4sLluz2BdWd1bnVZxut3/ntohSTphAAEIAABCEAAAhCAAAQOn8CRisOTJ0++ePFicXFxaenn/FXmquozFGeUKqjLNzq7kYGLxpQwzjfbqy6QM+mJxIn1rDdrYVvNttNKr8D4ljnBVOzYXguqeEQHPWjV3J7JlOEdo57odC7E1B/sUms9FW4aHUbOY+Nu2TgYNbVLEqFqncUXiXYMUhNlXXeA9WYoijd991H98TJxo9a8WRfpt2aqVRSsc9jutJ8alup87doVeTW9p+pC7K6pZqxfDYP+qoxXGrf2GVsb70oDAhCAAAQgAAEIQAACEDheBI5UHLqrP378eG5uvkAfynD9plNo/XbLYkpFCKWiHHV+pqfSeOZ1mQ5duS+RkfZEoqXIOFxSo0HndnvHGQfdlsnD2eqcdGSmmMFwj59X9ke0WXSYIrPcmvWVRB+K+fBF4jVyE6P+SmMlCvtMqVyVvMX90Tz5G96SUN7e05hGNBReNU67f7qOyvmUZ7VyTnS0CUV5Yan+aC5/IQABCEAAAhCAAAQgAIGJI/ADxKEwEn0Yhr+dOnUq4eV8UsFs45m6/rzkc0Iucidqhlu6x0U+xqKlEmzF8ZBB9bzIlyLj2vmqbjr4kM5nfLf7UfpU/6SniF8xt6PrSQ49umWO0Ng5mU/Nc7tYoKZ4L02aplTW8EXifYaP54c0KDRaanbxWizYRvUnK6oGHOy+izus4VIQnYTub7wWb6HocPVMpsNx+x+0vzqfncovCEAAAhCAAAQgAAEIQGAiCfwYcRiGvz5//vzLly8pZjvtZSeTtE+SADVk0oRcbzNJ0/PSrn4nFiqJOBm83lDBt/NeJIs9Zcbm+/J2QTBX1Worg/c7o3ZMnyGeVdbovpKgTC+oJEw0a+p2GWzZeYPASdPEZOgi8dDw8fxQpO6GlvKqL98fr+gaGakszkktTqNJhlaNRiJIlxfuaYxpIOmI1sjY59biJwQgAAEIQAACEIAABCAwkQR+gDgUZfj1698vX77MAAvboga7TXV/+STAyCWoGW7ZJ/bIqXHeK5c1NY2jZu5fs+v8YKLbtNSKe8K2RYAmAnB4x+GezDZeas5b3qQbsfIz5hNUjZgKfpXh/nvNqIxlbSxNM2uO/lFwmIqFxAaXri16letnj+rPLZ5IZUmb1DheJeyUobd01XSW23MalDuIYk1zy/ATAhCAAAQgAAEIQAACEJhcAkcqDr99+/bLL1c/f/4rrwyNn3gLXUmVbdNq4sfru6Iozk9oBWlcj/fIaf2VuL5LwSsoNu6v3u5YEKmLk5RF3HZWkWXUjlKi058tK/MCC600F6EcJpUe6arR2MoFJzO/YrxmTpoO22t5VauyM3y8yFiyFuUALugzUbnqgi3uj+YF3U11cTpt6RMQZSwhrPcNW05Iy6X0rFGCYu2cFKpBKMYoaUAAAhCAAAQgAAEIQGCiCRypONzc3Hz06Petra0CZO92o2hQHYw+PNhtWmJhyn64JzWYbxYb99vLzjkZmevHG5Z9RZbhKcM90Tz9220696CeOX9WbyduuLx7UxxxLlDTmUhm4JifuBhxmEGnY3GfFvmZWmpUvz+Z/jF1WOCMTJkEVSekVRkKK7++VTH9uLUR1fVJT6ANAQhAAAIQgAAEIAABCEwagRPz8xcm7cycN0VAyqKKvzDOD4xHRvXHBklDQkllifEFqptpdVOlVlBe9ybr0oIABCAAAQhAAAIQgAAEjjOBmZmze3uf4hMeqecw3pXGcSIgpYD0k/bZz2mUH9CUYYFHtHwWoxCAAAQgAAEIQAACEIDA8SXwD4+hQNsSfkA7AAAAAElFTkSuQmCC;" vertex="1" parent="WIyWlLk6GJQsqaUBKTNV-1">
          <mxGeometry x="-520" y="140" width="829.16" height="438.5" as="geometry" />
        </mxCell>
      </root>
    </mxGraphModel>
  </diagram>
</mxfile>
